<?xml version="1.0" encoding="UTF-8" standalone="no"?><!DOCTYPE svg PUBLIC "-//W3C//DTD SVG 1.1//EN" "http://www.w3.org/Graphics/SVG/1.1/DTD/svg11.dtd"><svg width="100%" height="100%" viewBox="0 0 2188 2068" version="1.1" xmlns="http://www.w3.org/2000/svg" xmlns:xlink="http://www.w3.org/1999/xlink" xml:space="preserve" xmlns:serif="http://www.serif.com/" style="fill-rule:evenodd;clip-rule:evenodd;stroke-linejoin:round;stroke-miterlimit:2;"><path d="M2,778l0,-775.955l2187.826,-0l0,2067.66l-2187.826,0l0,-1291.705m26.342,389l0,878.086l2137.382,0l0,-2016.666l-2137.382,0c0,379.354 0,757.967 -0,1138.581Z" style="fill:#020202;fill-rule:nonzero;"/><path d="M899.363,352.369c0.623,0.064 1.246,0.128 3.032,-0.113c33.524,-9.99 65.819,-19.907 98.276,-29.257c14.931,-4.301 30.181,-7.493 45.286,-11.188c0.924,-0.02 1.847,-0.041 4.158,-0.29c6.205,-1.365 11.024,-2.501 15.843,-3.636c0.918,0.004 1.836,0.008 4.082,-0.134c3.522,-0.727 5.716,-1.308 7.909,-1.889c1.539,-0.053 3.077,-0.106 5.949,-0.335c2.913,-0.652 4.494,-1.128 6.074,-1.604c0.913,0.015 1.827,0.03 4.214,-0.086c6.338,-0.801 11.2,-1.479 16.066,-2.14c13.921,-1.891 27.843,-3.774 41.764,-5.66c2.144,-0.018 4.287,-0.035 8.036,-0.138c6.387,-0.689 11.169,-1.292 15.95,-1.895c0.9,0.08 1.799,0.16 4.274,0.177c13.615,-0.797 25.654,-1.531 37.693,-2.266c1.528,0.103 3.057,0.206 6.056,0.295c2.954,-0.161 4.438,-0.309 5.921,-0.456c5.428,0.112 10.855,0.223 17.984,0.349c4.491,-0.107 7.28,-0.229 10.07,-0.35c0.905,0.131 1.809,0.263 4.216,0.436c18.125,0.984 34.786,1.485 51.36,2.971c26.175,2.346 52.29,5.352 78.431,8.079c1.488,0.322 2.976,0.644 5.866,1.259c6.897,1.429 12.391,2.565 18.61,3.852c-5.546,6.615 -10.105,12.053 -15.269,17.772c-4.856,6.1 -9.108,11.918 -13.937,18.085c-48.877,80.465 -36.316,153.672 25.009,221.898c-23.007,45.967 -49.864,89.681 -81.594,129.995c-60.33,-25.454 -119.079,-8.564 -154.2,26.909c-44.014,44.455 -53.05,96.322 -31.479,154.442c-14.401,14.393 -96.194,62.156 -116.486,67.919c-0.678,-0.629 -1.485,-1.229 -2.111,-1.981c-19.434,-23.341 -43.935,-36.758 -74.41,-40.16c-51.128,-5.707 -102.378,28.563 -116.069,78.082c-5.186,18.76 -4.813,37.488 -2.75,56.469c-3.468,0.408 -6.115,0.617 -8.704,1.125c-19.137,3.758 -38.204,7.91 -57.41,11.266c-14.633,2.557 -29.401,4.484 -44.177,6.052c-21.347,2.266 -42.755,3.952 -64.137,5.886c6.082,-29.1 15.885,-57.034 26.694,-84.637c28.332,-72.347 69.36,-137.148 117.737,-197.55c59.332,-74.081 128.434,-137.856 204.758,-194.016c6.079,-4.473 11.749,-9.504 18.693,-14.846c5.217,-2.999 9.351,-5.427 13.485,-7.855c-0.365,-0.638 -0.73,-1.277 -1.095,-1.915c-4.434,1.87 -8.867,3.74 -13.301,5.609c-7.03,2.333 -14.057,4.675 -21.09,6.996c-3.159,1.043 -6.376,1.924 -9.49,3.085c-94.916,35.411 -179.022,88.182 -253.061,157.239c-69.771,65.077 -124.692,141.141 -167.903,225.924c-45.081,88.451 -75.638,181.902 -96.214,278.83c-9.555,45.01 -16.941,90.348 -22.351,136.028c-0.504,4.259 -1.261,8.688 -2.982,12.557c-2.62,5.894 -9.098,6.558 -12.78,1.257c-2.396,-3.45 -3.79,-7.751 -4.98,-11.86c-10.397,-35.877 -18.224,-72.328 -24.408,-109.16c-10.402,-61.96 -15.535,-124.363 -14.046,-187.139c2.574,-108.526 20.785,-214.124 63.215,-314.645c57.844,-137.036 148.665,-246.983 272.672,-329.302c30.303,-20.116 62.063,-37.72 95.925,-53.977c2.042,-1.214 3.029,-1.881 4.015,-2.548c0,0 -0.156,-0.058 0.49,0.003c1.734,-0.611 2.821,-1.283 3.908,-1.954c1.499,-0.484 2.998,-0.969 5.57,-1.909c1.712,-0.99 2.351,-1.523 2.991,-2.057c0,0 0.437,0.23 1.315,0.03c3.355,-1.475 5.831,-2.751 8.308,-4.026c0,0 0.701,0.081 1.576,-0.192c1.505,-0.789 2.136,-1.305 2.766,-1.82c0,0 0.435,0.23 1.291,0.007c1.53,-0.789 2.205,-1.354 2.879,-1.92c0,0 0.242,0.293 0.976,0.176c1.036,-0.334 1.338,-0.55 1.64,-0.766c1.096,-0.287 2.192,-0.574 4.421,-1.313c8.985,-3.688 16.837,-6.923 24.688,-10.159c0,0 0.522,0.219 1.392,-0.019c1.546,-0.789 2.222,-1.34 2.898,-1.891Z" style="fill:#5c9d3b;fill-rule:nonzero;"/><path d="M1480.12,300.327c17.641,-5.116 35.433,-8.552 54.01,-8.348c67.519,0.744 137.938,50.835 145.038,135.759c7.637,91.339 -68.541,158.717 -142.824,158.685c-4.312,-0.002 -8.623,-0 -13.317,-0c-38.28,72.627 -87.513,137.002 -142.602,197.145c14.037,50.459 4.199,94.624 -37.375,127.725c-38.837,30.921 -81.83,31.663 -126.703,9.808c-58.255,38.026 -120.123,70.15 -187.689,93.034c-3.8,-12.381 -6.281,-24.339 -8.11,-36.596c56.216,-25.015 108.106,-55.952 156.972,-91.898c-17.307,-36.517 -20.476,-49.183 -17.972,-73.831c2.684,-26.421 13.254,-49.37 31.522,-68.593c16.322,-17.176 36.387,-28.021 59.608,-32.399c30.822,-5.811 59.422,1.063 85.773,17.123c29.597,-30.342 85.662,-120.896 106.613,-169.326c-4.583,-4.087 -9.381,-8.169 -13.963,-12.481c-49.995,-47.052 -58.039,-120.933 -29.965,-173.512c2.501,-4.684 4.924,-9.41 7.938,-14.491c7.502,-8.816 14.449,-17.256 22.024,-25.935c15.533,-13.797 32.66,-23.815 51.021,-31.868Z" style="fill:#523624;fill-rule:nonzero;"/><path d="M1019.896,977.836c2.482,11.958 4.964,23.917 8.029,36.519c-0.512,3.978 -2.036,7.237 -2.637,10.658c-6.382,36.291 -33.1,63.725 -69.051,70.089c-14.971,2.651 -29.856,1.737 -44.353,-3.472c-9.047,-3.25 -9.287,-3.152 -15.317,3.976c-34.435,40.712 -68.829,81.459 -103.201,122.224c-1.68,1.992 -3.027,4.264 -4.766,6.743c2.281,3.606 4.539,6.866 6.487,10.302c22.979,40.527 24.522,81.494 -0.8,121.141c-25.803,40.401 -64.456,57.25 -111.462,51.407c-33.961,-4.221 -61.182,-21.725 -79.755,-51.273c-1.95,-3.102 -3.779,-6.281 -6.255,-10.446c-1.281,-1.991 -1.971,-2.961 -2.66,-3.93c0,0 -0.079,0.178 -0.049,-0.632c-6.081,-15.404 -9.466,-30.59 -8.857,-46.43c0.343,-8.924 1.621,-17.811 2.477,-26.715c1.309,-3.556 2.619,-7.112 4.357,-11.932c2.951,-6.857 5.473,-12.449 7.995,-18.042c1.956,-2.725 3.913,-5.45 6.591,-9.164c8.305,-8.917 15.888,-16.845 23.471,-24.773c0,0 -0.124,-0.084 0.588,-0.171c7.586,-3.981 14.287,-8.227 21.369,-11.696c15.701,-7.689 32.678,-9.838 49.905,-10.585c0.905,0.133 1.811,0.266 4.164,0.486c10.894,1.928 20.341,3.768 29.788,5.608c0.615,0.277 1.23,0.555 2.853,1.258c4.258,1.854 7.693,2.97 10.715,4.778c5.216,3.121 8.407,1.341 10.714,-3.609c0,0 -0.185,-0.115 0.486,-0.294c7.651,-8.701 14.631,-17.222 21.612,-25.744c0.698,-0.102 1.201,-0.47 2.202,-1.874c7.051,-8.559 13.408,-16.35 19.764,-24.14c1.733,-1.769 3.467,-3.538 5.983,-6.184c5.706,-7.02 10.587,-13.198 15.569,-19.293c2.88,-3.523 5.925,-6.912 8.896,-10.361c0.589,-0.073 1.02,-0.373 1.936,-1.526c0.988,-1.276 1.335,-1.925 1.682,-2.574c4.959,-5.667 9.917,-11.334 15.693,-17.932c4.325,-4.926 7.892,-8.871 11.327,-12.926c5.68,-6.706 5.782,-6.813 1.435,-14.583c-15.879,-28.382 -14.24,-65.906 9.623,-95.043c35.906,-43.843 109.286,-39.522 138.129,11.856c1.606,2.86 3.543,5.534 5.325,8.294Z" style="fill:#5c9d3d;fill-rule:nonzero;"/><path d="M464.77,1715.455c14.004,3.688 27.423,6.512 40.274,10.972c7.702,2.673 15.339,6.922 21.579,12.162c21.472,18.03 23.368,53.983 4.836,76.921c-10.792,13.358 -25.318,20.444 -41.552,24.149c-33.873,7.731 -66.929,5.075 -98.526,-9.817c-6.816,-3.212 -13.055,-7.908 -19.003,-12.624c-4.946,-3.921 -5.421,-9.722 -3.5,-15.557c2.886,-8.766 9.862,-11.468 18.008,-6.99c2.622,1.442 5.064,3.21 7.613,4.788c25.916,16.044 54.055,19.981 83.621,14.641c6.416,-1.159 12.877,-3.704 18.553,-6.948c9.111,-5.207 14.708,-13.321 15.512,-24.217c0.837,-11.334 -3.129,-20.109 -13.109,-26.063c-12.249,-7.308 -25.799,-10.549 -39.574,-13.207c-16.337,-3.152 -32.811,-5.64 -48.347,-12.126c-21.261,-8.876 -35.524,-22.936 -37.46,-47.211c-2.051,-25.731 8.115,-45.387 29.081,-59.644c12.402,-8.434 26.75,-11.891 41.368,-13.81c25.499,-3.348 49.869,0.861 72.62,12.885c5.794,3.062 11.141,7.33 15.913,11.865c5.064,4.813 4.68,11.615 0.176,17.108c-4.303,5.249 -9.554,6.189 -16.002,2.794c-1.47,-0.774 -2.876,-1.689 -4.244,-2.636c-19.3,-13.354 -40.9,-17.026 -63.814,-15.212c-11.226,0.889 -21.314,4.707 -30.61,11.1c-17.588,12.095 -21.07,46.397 7.156,56.435c12.483,4.439 25.715,6.776 39.431,10.242Z" style="fill:#5f9d42;fill-rule:nonzero;"/><path d="M1253.772,1692c0.014,44.644 0.025,88.289 0.036,131.933c0,1.333 0.027,2.666 -0.01,3.998c-0.303,10.617 -4.422,15.067 -14.148,15.304c-9.592,0.234 -14.765,-4.369 -15.745,-14.107c-0.287,-2.853 -0.38,-5.726 -0.66,-10.144c-2.403,2.051 -3.75,2.853 -4.637,4.009c-22.405,29.207 -79.892,28.236 -103.861,-6.944c-6.65,-9.76 -11.879,-20.024 -13.507,-31.88c-2.608,-18.989 -3.103,-37.951 3.104,-56.345c15.134,-44.855 56.805,-54.29 87.913,-45.24c9.793,2.849 18.245,8.073 25.048,15.76c1.47,1.661 2.673,3.559 3.999,5.348c0.752,-0.381 1.504,-0.761 2.256,-1.142c0,-2.495 0.001,-4.99 -0,-7.485c-0.008,-21.656 -0.018,-43.311 -0.023,-64.967c-0,-1.999 -0.031,-4 0.05,-5.996c0.421,-10.348 4.661,-14.452 14.868,-14.441c9.939,0.011 15.148,4.533 15.254,14.375c0.24,22.319 0.066,44.643 0.063,67.965m-101.712,119.209c26.572,16.088 57.116,6.129 67.027,-22.293c6.572,-18.845 6.389,-38.001 -0.52,-56.795c-6.593,-17.934 -21.181,-27.643 -40.906,-27.878c-19.251,-0.229 -34.717,9.618 -41.656,26.931c-5.858,14.616 -6.418,29.798 -4.036,45.213c2.112,13.671 7.422,25.516 20.092,34.823Z" style="fill:#5e9c41;fill-rule:nonzero;"/><path d="M1422.537,1707.703c5.268,10.435 6.739,21.041 6.865,31.697c0.347,29.294 0.323,58.594 0.188,87.891c-0.054,11.585 -6.006,16.532 -17.115,15.066c-6.932,-0.915 -10.039,-3.602 -11.432,-10.516c-0.713,-3.538 -0.829,-7.197 -1.355,-12.112c-2.448,2.383 -4.335,3.968 -5.926,5.809c-23.23,26.881 -69.822,21.56 -89.559,-0.733c-20.147,-22.755 -13.574,-55.961 14.218,-67.793c8.16,-3.474 17.087,-5.931 25.882,-6.952c14.175,-1.646 28.532,-1.749 42.816,-2.422c3.57,-0.168 7.155,-0.025 11.161,-0.025c1.36,-11.677 -0.103,-21.796 -5.362,-30.909c-5.339,-9.251 -14.835,-11.884 -24.716,-12.787c-15.01,-1.371 -29.042,2.527 -42.54,8.743c-2.114,0.974 -4.117,2.188 -6.228,3.17c-7.786,3.619 -12.115,2.772 -15.527,-2.964c-4.052,-6.812 -2.753,-14.189 3.938,-18.214c15.732,-9.463 33.103,-13.672 51.27,-14.954c13.789,-0.973 27.247,0.119 39.994,6.148c9.918,4.692 18.023,11.256 23.43,21.857m-68.615,60.574c-5.488,1.342 -11.148,2.208 -16.424,4.13c-9.099,3.315 -13.564,10.205 -13.698,19.975c-0.173,12.584 8.867,24.34 22.162,27.148c35.447,7.486 58.854,-21.786 52.082,-53.367c-13.941,0.643 -28.145,1.298 -44.121,2.113Z" style="fill:#5f9c43;fill-rule:nonzero;"/><path d="M1687.867,1731.114c-5.254,-20.454 -13.977,-27.242 -34.195,-27.334c-13.211,-0.06 -25.775,2.75 -37.633,8.604c-2.089,1.031 -4.087,2.25 -6.186,3.26c-8.318,4 -12.853,3.115 -16.232,-3.098c-4.107,-7.55 -2.413,-14.218 5.259,-18.552c14.417,-8.145 30.049,-13.132 46.493,-13.932c11.185,-0.544 22.813,-0.151 33.667,2.337c22.575,5.174 35.841,21.249 38.772,44.171c0.549,4.292 1.194,8.614 1.217,12.925c0.157,29.312 0.329,58.625 0.13,87.935c-0.082,12.116 -8.689,17.843 -20.396,14.361c-5.146,-1.531 -7.466,-5.357 -8.213,-10.269c-0.534,-3.513 -0.625,-7.093 -1.044,-12.254c-2.718,2.698 -4.63,4.287 -6.177,6.176c-21.079,25.746 -68.392,23.367 -89.258,-0.938c-11.396,-13.274 -13.847,-28.425 -8.984,-44.913c2.364,-8.015 7.685,-13.847 14.65,-18.328c10.329,-6.645 21.871,-10.034 33.835,-11.247c13.887,-1.407 27.896,-1.642 41.856,-2.29c3.915,-0.182 7.846,-0.028 12.555,-0.028c0,-6.036 0,-10.887 -0.116,-16.587m-17.378,82.77c15.641,-11.698 19.783,-27.814 18.958,-47.408c-6.366,0 -11.633,-0.427 -16.808,0.082c-14.15,1.392 -28.626,1.727 -42.296,5.168c-17.872,4.499 -22.859,26.872 -9.277,39.314c4.625,4.237 11.266,7.257 17.465,8.574c10.524,2.235 21.188,1.267 31.958,-5.729Z" style="fill:#609d43;fill-rule:nonzero;"/><path d="M1026.973,1715.5c-12.349,-13.927 -27.953,-13.289 -43.106,-10.37c-10.6,2.042 -20.686,7.009 -30.83,11.094c-9.529,3.837 -16.618,-0.372 -17.264,-10.616c-0.281,-4.45 1.362,-7.889 5.018,-10.18c3.372,-2.114 6.875,-4.107 10.527,-5.669c18.7,-7.997 38.201,-11.482 58.535,-9.866c11.162,0.887 21.515,4.291 31.005,10.236c11.043,6.917 17.788,16.992 20.516,29.554c1.406,6.474 2.315,13.186 2.376,19.8c0.269,29.318 0.238,58.64 0.129,87.96c-0.045,12.121 -7.009,17.353 -18.844,15.022c-6.118,-1.205 -9.276,-4.94 -10.325,-10.678c-0.643,-3.517 -0.739,-7.134 -1.217,-12.142c-2.532,2.611 -4.365,4.277 -5.941,6.157c-22.048,26.311 -68.763,21.435 -88.028,-0.007c-11.048,-12.296 -14.641,-26.754 -11.102,-42.735c2.641,-11.925 10.953,-19.55 21.422,-24.941c13.317,-6.857 27.83,-8.99 42.524,-9.84c9.97,-0.577 19.983,-0.394 29.975,-0.599c3.27,-0.067 6.538,-0.286 10.832,-0.483c0.354,-11.158 -0.581,-21.444 -6.202,-31.697m-59.114,97.854c15.073,10.455 30.883,10.055 45.85,0.947c17.318,-10.539 20.907,-27.752 19.649,-47.452c-15.719,-1.194 -30.849,0.275 -45.943,1.741c-4.9,0.476 -9.833,1.771 -14.481,3.442c-12.567,4.518 -18.192,16.144 -13.616,28.772c1.52,4.195 4.886,7.722 8.541,12.548Z" style="fill:#5f9c42;fill-rule:nonzero;"/><path d="M776.951,1686.985c16.737,38.535 33.071,76.434 49.993,115.696c1.835,-3.438 3.186,-5.572 4.166,-7.864c14.675,-34.305 29.486,-68.553 43.828,-102.996c4.355,-10.459 11.899,-12.885 20.617,-11.245c8.322,1.566 11.626,7.394 9.094,15.496c-0.594,1.899 -1.461,3.718 -2.267,5.545c-18.145,41.152 -36.299,82.3 -54.45,123.45c-0.807,1.829 -1.644,3.647 -2.386,5.503c-3.382,8.458 -9.856,12.323 -18.713,12.333c-8.884,0.01 -15.151,-4.097 -18.814,-12.32c-8.678,-19.477 -17.535,-38.873 -26.211,-58.35c-10.167,-22.825 -20.218,-45.702 -30.322,-68.555c-0.269,-0.609 -0.595,-1.194 -0.859,-1.805c-4.065,-9.388 -3.83,-14.41 0.852,-18.315c5.597,-4.67 15.789,-4.8 22.426,-0.172c1.056,0.736 1.771,1.963 3.046,3.6Z" style="fill:#5f9c42;fill-rule:nonzero;"/><path d="M1492.983,1632.349c2.464,-0.172 4.143,-0.379 5.788,-0.224c9.345,0.884 13.182,4.639 13.516,13.895c0.3,8.312 0.047,16.643 0.133,24.965c0.033,3.248 0.323,6.494 0.564,11.02c9.112,0 17.652,0.001 26.192,-0c4.66,-0.001 9.341,-0.289 13.976,0.056c7.295,0.543 10.714,4.464 10.79,11.689c0.082,7.878 -3.372,12.12 -11.061,12.329c-10.976,0.299 -21.968,-0.003 -32.954,0.01c-1.968,0.002 -3.936,0.286 -6.881,0.516c-0.268,2.931 -0.749,5.782 -0.754,8.635c-0.04,20.972 -0.148,41.947 0.139,62.916c0.086,6.277 0.752,12.682 2.207,18.776c3.399,14.23 12.803,21.343 27.443,21.115c4.608,-0.072 9.203,-1.173 13.797,-1.854c7.9,-1.17 11.803,0.684 13.662,6.552c2.241,7.074 -0.413,13.895 -7.199,16.551c-4.599,1.8 -9.572,3.01 -14.482,3.558c-5.911,0.66 -12.017,1.043 -17.889,0.326c-30.502,-3.728 -46.411,-20.983 -47.748,-52.685c-0.841,-19.941 -0.319,-39.94 -0.39,-59.913c-0.027,-7.619 -0.004,-15.238 -0.004,-24.054c-7.473,-0.175 -14.324,-0.107 -21.141,-0.554c-7.771,-0.51 -11.267,-4.644 -11.11,-12.394c0.146,-7.221 3.514,-11.188 10.863,-11.664c6.576,-0.425 13.202,-0.089 20.955,-0.089c0.163,-4.657 0.381,-8.507 0.415,-12.358c0.066,-7.323 0.096,-14.648 0.012,-21.971c-0.086,-7.5 2.694,-12.918 11.163,-15.15Z" style="fill:#5e9c41;fill-rule:nonzero;"/><path d="M664.703,1808.989c-0.954,-8.062 -2.304,-15.329 -2.331,-22.601c-0.197,-53.241 -0.164,-106.484 -0.117,-159.726c0.011,-13.17 6.41,-18.9 18.418,-16.895c7.201,1.202 11.358,5.181 12.358,12.38c0.454,3.272 0.289,6.639 0.291,9.963c0.032,47.918 0.021,95.836 0.089,143.754c0.008,5.984 0.055,12.006 0.698,17.943c1.737,16.055 11.401,24.273 27.583,23.784c2.652,-0.08 5.287,-0.619 7.94,-0.784c6.903,-0.43 9.651,1.995 10.317,8.959c0.925,9.671 -2.333,14.137 -11.806,16.379c-10.958,2.593 -21.867,2.121 -32.547,-1.098c-15.845,-4.775 -26.256,-15.149 -30.893,-32.059Z" style="fill:#619d44;fill-rule:nonzero;"/><path d="M612.16,1750c-0.008,26.268 0.12,51.538 -0.082,76.804c-0.104,13.044 -9.188,19.376 -21.354,15.443c-4.888,-1.581 -7.964,-4.744 -8.722,-9.838c-0.389,-2.615 -0.428,-5.299 -0.428,-7.952c0.005,-41.56 0.041,-83.119 0.072,-124.679c0.001,-1.33 -0.001,-2.661 0.043,-3.99c0.431,-13.089 11.873,-19.827 23.667,-13.969c5.581,2.772 6.847,7.667 6.828,13.319c-0.048,13.964 -0.029,27.928 -0.035,41.892c-0.002,3.99 0.006,7.98 0.009,12.969Z" style="fill:#5d9b40;fill-rule:nonzero;"/><path d="M833.188,1037.78c3.558,7.522 6.269,15.106 9.101,23.03c-4.018,1.01 -7.44,1.87 -11.576,3.038c-1.618,0.301 -2.522,0.293 -4.871,0.445c-8.229,1.658 -15.012,3.157 -21.795,4.656c-0.378,-0.281 -0.757,-0.562 -2.259,-0.87c-17.43,1.705 -33.736,3.438 -50.042,5.17c-22.796,0.61 -45.591,1.274 -68.389,1.792c-5.614,0.127 -11.252,-0.02 -16.855,-0.4c-8.967,-0.608 -9.484,-1.445 -8.073,-11.913c21.712,-2.553 43.12,-4.239 64.467,-6.505c14.776,-1.568 29.544,-3.495 44.177,-6.052c19.206,-3.356 38.273,-7.508 57.41,-11.266c2.589,-0.508 5.236,-0.717 8.704,-1.125Z" style="fill:#533d29;fill-rule:nonzero;"/><path d="M594.479,1647.602c-12.675,-0.957 -16.607,-6.318 -17.913,-13.661c-2.538,-14.278 4.169,-22.497 18.717,-22.973c1.658,-0.054 3.333,0.016 4.984,0.181c14.739,1.47 22.191,17.229 13.845,29.59c-4.504,6.671 -11.706,6.842 -19.633,6.864Z" style="fill:#619d44;fill-rule:nonzero;"/><g transform="matrix(96.697751,0,0,96.697751,1370.731211,1982.665645)"></g><text x="817.174px" y="1982.666px" style="font-family:'ArialMT', 'Arial', sans-serif;font-size:96.698px;fill:#909090;">by Silvateam</text></svg>