<svg version="1.1" id="Layer_1" xmlns="http://www.w3.org/2000/svg" xmlns:xlink="http://www.w3.org/1999/xlink" x="0px" y="0px"
	 width="100%" viewBox="0 0 3200 3200" enable-background="new 0 0 3200 3200" xml:space="preserve">
<path fill="#AECEF4" opacity="1.000000" stroke="none" 
	d="
M1295.425049,2434.443848 
	C1192.686523,2406.216797 1097.014771,2363.864502 1007.531067,2307.654785 
	C884.098389,2230.120117 779.768982,2132.097412 695.097168,2013.447021 
	C686.122742,2000.871216 677.391113,1994.504639 661.122314,1995.190918 
	C591.817993,1998.114502 537.569519,1915.632202 575.553711,1846.009155 
	C576.670654,1843.962036 577.517822,1841.610962 579.100220,1840.000488 
	C587.528259,1831.422607 585.405518,1823.030396 581.002380,1812.937500 
	C544.718445,1729.767456 519.275330,1643.284546 504.710236,1553.741089 
	C490.633667,1467.201294 486.565125,1380.107666 493.685028,1292.652588 
	C496.063049,1263.442749 499.537415,1234.312256 503.074890,1205.214111 
	C503.897156,1198.450562 502.706482,1194.266235 497.001678,1190.102661 
	C477.364471,1175.771118 461.128967,1158.226685 450.425598,1136.146240 
	C434.984833,1104.292725 435.894257,1071.642822 446.822418,1038.834839 
	C465.450348,982.911255 506.547577,956.000732 563.255005,950.157776 
	C570.869934,949.373169 574.932983,947.095703 578.032898,939.844116 
	C623.370300,833.786438 685.661133,738.469238 761.615173,651.916931 
	C773.922241,637.892578 786.571228,624.150085 799.507019,610.705322 
	C804.010437,606.024597 805.009521,601.789795 803.426208,595.558838 
	C798.679138,576.877258 797.868652,557.960754 803.224731,539.225647 
	C819.752686,481.412354 882.036316,450.807831 939.646118,473.022308 
	C950.055420,477.036194 956.857727,476.013336 965.682312,469.874451 
	C1072.376099,395.651855 1188.855225,342.555115 1314.712158,310.240845 
	C1341.153442,303.451965 1367.986816,298.112640 1394.785034,292.845245 
	C1401.875977,291.451477 1404.750244,288.460175 1406.321655,281.725037 
	C1412.867554,253.667694 1425.366821,228.425339 1444.310059,206.648422 
	C1469.004639,178.259949 1500.833740,162.506287 1537.497559,156.574661 
	C1584.690308,148.939667 1627.614136,159.425217 1665.091064,189.584930 
	C1693.578491,212.510391 1711.825928,242.123306 1720.588257,277.596985 
	C1720.985718,279.205963 1721.416382,280.870392 1721.407104,282.506592 
	C1721.281250,304.832428 1721.594971,327.180176 1720.627563,349.471619 
	C1720.274902,357.595703 1717.588745,365.884644 1714.572876,373.549713 
	C1711.739990,380.749237 1712.601807,385.339661 1718.182495,391.065369 
	C1753.309082,427.104584 1787.966431,463.601257 1822.781616,499.944214 
	C1845.377197,523.531311 1868.003052,547.089722 1890.537231,570.735413 
	C1892.821777,573.132874 1894.567017,576.044495 1896.477051,578.602661 
	C1903.180054,576.378723 1908.189575,574.687744 1913.217285,573.052979 
	C1968.750732,554.996033 2030.073608,587.806458 2042.554810,644.590637 
	C2054.645752,699.598328 2029.459229,747.162537 1983.281616,765.620972 
	C1952.332031,777.992249 1903.353149,776.361145 1871.014404,743.068542 
	C1846.612061,717.946411 1830.659424,671.523132 1850.375244,628.998840 
	C1851.904053,625.701477 1853.358276,622.369568 1855.241333,618.176025 
	C1796.011719,556.244385 1736.882202,494.417267 1677.017822,431.821899 
	C1673.484253,434.471405 1670.302734,436.671478 1667.325928,439.120422 
	C1652.780762,451.086548 1636.785767,460.441284 1619.027832,466.863373 
	C1606.338501,471.452423 1593.391357,473.962311 1579.876953,473.672943 
	C1572.548096,473.515991 1565.208618,473.571411 1557.879517,473.754395 
	C1502.970581,475.124847 1462.325684,449.387695 1431.224243,406.362640 
	C1423.872803,396.193024 1418.625854,384.502228 1411.854126,372.526672 
	C1408.826172,372.992340 1405.289429,373.424194 1401.797241,374.089752 
	C1319.584595,389.757965 1240.245117,414.326782 1164.526489,450.279572 
	C1118.123169,472.312775 1072.529419,495.791687 1029.506226,523.980530 
	C1022.267944,528.723083 1015.345154,533.966309 1008.464844,539.224426 
	C1006.453369,540.761658 1003.792969,543.067200 1003.659851,545.162170 
	C1003.112427,553.779053 1003.034058,562.482056 1003.728271,571.076965 
	C1003.877869,572.928894 1007.717346,575.096558 1010.257935,576.044556 
	C1030.861206,583.732605 1051.559082,591.166748 1072.229736,598.674133 
	C1107.619507,611.527466 1143.085083,624.179077 1178.338379,637.396790 
	C1185.408813,640.047729 1190.212524,639.494751 1196.378418,634.783630 
	C1232.644165,607.074463 1283.485229,616.833862 1305.487305,655.231140 
	C1310.378296,663.766785 1313.449097,672.788086 1313.218262,682.782043 
	C1313.079712,688.777893 1312.957031,694.789490 1313.220337,700.776672 
	C1314.590820,731.941467 1282.000488,765.273438 1249.535889,763.771545 
	C1246.211182,763.617676 1242.835815,763.491760 1239.543213,763.869263 
	C1205.822021,767.736267 1175.511719,738.364929 1170.555786,709.380859 
	C1168.563965,697.732544 1162.928711,693.096558 1152.417358,689.408386 
	C1099.284668,670.765808 1046.413574,651.372253 993.569946,631.918030 
	C987.639954,629.734985 983.706543,630.367432 979.568604,634.936279 
	C975.328125,639.618286 970.735962,644.056091 965.857361,648.064880 
	C960.991516,652.063171 960.536194,656.237976 962.410645,662.034851 
	C975.532227,702.614990 988.355225,743.291565 1001.277893,783.935974 
	C1019.955139,842.679688 1039.094238,901.283447 1056.957642,960.273560 
	C1060.880981,973.229553 1066.465332,978.272278 1080.107788,980.396729 
	C1121.891724,986.903320 1151.646606,1010.245789 1162.650024,1051.835327 
	C1179.479980,1115.447510 1144.852539,1166.546509 1090.568481,1180.060913 
	C1071.531006,1184.800659 1051.545532,1183.882202 1032.257935,1178.333740 
	C1029.729858,1177.606567 1027.276245,1176.620972 1022.764404,1175.050659 
	C1021.666138,1176.735107 1020.437744,1179.138550 1018.740662,1181.145874 
	C980.006714,1226.959839 941.311157,1272.807251 902.321411,1318.403076 
	C897.920471,1323.549561 897.181946,1327.752808 900.298401,1333.552856 
	C908.673828,1349.140503 911.634644,1365.704224 911.646057,1383.564331 
	C911.670349,1421.467163 894.892700,1449.179443 863.897400,1469.391479 
	C851.077576,1477.751099 837.189453,1482.784058 821.738159,1483.376465 
	C813.983459,1483.673706 813.916687,1483.943481 811.881226,1491.741943 
	C788.489258,1581.366577 765.130737,1671.000000 741.740601,1760.625244 
	C738.122681,1774.488037 734.528381,1788.359985 730.655823,1802.152466 
	C728.640503,1809.330444 730.073120,1814.809937 735.798706,1819.970581 
	C752.742188,1835.242554 762.962952,1854.386475 766.221619,1876.979858 
	C767.029602,1882.582153 769.939941,1884.718628 774.859009,1886.341064 
	C810.297119,1898.029419 845.652222,1909.969116 881.045898,1921.792236 
	C953.416443,1945.967041 1025.845825,1969.967896 1098.100342,1994.484497 
	C1106.459717,1997.320801 1111.719971,1996.107422 1118.400024,1990.392334 
	C1173.617798,1943.149780 1259.223877,1966.230103 1281.687622,2034.844360 
	C1289.500610,2058.708984 1288.439331,2083.485352 1279.680908,2107.465576 
	C1278.774658,2109.946777 1277.620117,2112.337402 1276.095581,2115.905762 
	C1340.375977,2177.913818 1404.812622,2240.072754 1469.710083,2302.676025 
	C1500.082275,2284.753418 1531.724609,2272.679688 1567.280029,2273.380371 
	C1602.895874,2274.082764 1634.000977,2287.448242 1663.564941,2306.804443 
	C1666.157593,2304.801514 1668.584717,2303.141846 1670.768799,2301.207764 
	C1762.590210,2219.891602 1854.343140,2138.497803 1946.304932,2057.340576 
	C1952.050415,2052.270264 1952.658081,2047.987427 1950.223633,2041.048706 
	C1931.652832,1988.118652 1959.099854,1940.876709 1990.994629,1920.802246 
	C2045.525757,1886.480713 2116.406494,1908.541260 2141.529053,1968.225586 
	C2144.496826,1975.276001 2148.007568,1977.475952 2155.398926,1977.438599 
	C2212.061035,1977.152222 2268.725586,1977.186523 2325.388428,1977.404419 
	C2332.218262,1977.430664 2335.962158,1975.807251 2338.705078,1968.833130 
	C2355.721191,1925.568970 2401.724365,1898.335571 2447.733643,1905.710571 
	C2454.476074,1906.791504 2458.656250,1904.725708 2461.876465,1899.381958 
	C2470.296387,1885.409302 2479.505127,1871.833252 2486.895752,1857.332642 
	C2522.543945,1787.390381 2551.657227,1714.796143 2573.400146,1639.319824 
	C2576.070312,1630.051270 2577.632568,1620.469116 2580.010498,1611.109131 
	C2581.628174,1604.743164 2579.986816,1600.998901 2573.958496,1597.373413 
	C2543.099854,1578.815063 2523.269043,1551.756470 2514.114746,1516.905762 
	C2508.573730,1495.812012 2508.874268,1474.708740 2514.004150,1453.595703 
	C2514.710449,1450.688232 2515.426758,1447.781860 2516.044922,1444.855225 
	C2516.172363,1444.252441 2515.883789,1443.561890 2515.604736,1441.688721 
	C2443.254150,1393.858154 2370.214600,1345.571899 2296.630859,1296.926025 
	C2293.164062,1299.546631 2289.885986,1301.751953 2286.913330,1304.311646 
	C2224.302734,1358.222778 2098.594238,1337.834595 2076.273438,1224.941040 
	C2062.412109,1154.834961 2109.248047,1087.127563 2179.614502,1072.961914 
	C2249.268311,1058.939819 2317.827393,1103.400391 2333.098145,1173.050537 
	C2337.869873,1194.814087 2336.729248,1216.786499 2331.132080,1238.428711 
	C2330.391357,1241.291870 2329.497070,1244.115112 2328.328369,1248.150269 
	C2401.087402,1296.224365 2473.818359,1344.280151 2546.950439,1392.600830 
	C2551.261963,1389.168701 2555.118408,1386.051025 2559.024902,1382.997070 
	C2585.493896,1362.305054 2615.090332,1351.642578 2649.099121,1353.834961 
	C2718.911865,1358.335449 2769.968262,1411.488037 2772.145264,1481.202881 
	C2774.125977,1544.620728 2734.310303,1593.877441 2678.760254,1610.269409 
	C2676.842529,1610.835205 2674.968750,1611.561157 2673.034424,1612.055664 
	C2665.456543,1613.993286 2661.385010,1618.861328 2659.551758,1626.456055 
	C2655.487793,1643.292847 2651.220215,1660.089600 2646.590576,1676.779175 
	C2626.021729,1750.929688 2597.525391,1821.924927 2560.937988,1889.621094 
	C2550.325928,1909.256592 2539.189697,1928.621826 2527.775635,1947.802612 
	C2524.350342,1953.558960 2523.992676,1958.010742 2526.691406,1964.314941 
	C2544.222656,2005.264282 2534.664307,2060.484863 2495.148682,2089.511230 
	C2479.353271,2101.114014 2461.893311,2107.646973 2442.233398,2107.891113 
	C2435.237793,2107.978027 2428.206787,2108.098877 2421.247803,2107.525879 
	C2412.871094,2106.836670 2406.780518,2109.906494 2401.015625,2115.948730 
	C2382.385254,2135.475830 2363.815918,2155.112061 2344.279297,2173.715088 
	C2253.385254,2260.266113 2150.374756,2328.810547 2035.741821,2379.908447 
	C1963.014404,2412.326904 1887.701538,2436.645508 1809.496948,2451.747559 
	C1783.003052,2456.864014 1756.349854,2461.154785 1729.774414,2465.851074 
	C1727.513550,2466.250732 1725.291138,2466.867920 1722.634155,2467.480225 
	C1721.065186,2472.285400 1719.532104,2477.014160 1717.977661,2481.736084 
	C1699.213257,2538.735352 1661.050903,2575.361084 1602.949707,2590.773926 
	C1596.268188,2592.546631 1589.188354,2593.130127 1582.250366,2593.541992 
	C1574.277832,2594.015381 1566.220337,2593.190430 1558.264648,2593.790283 
	C1528.234497,2596.055664 1501.897339,2585.757080 1477.108521,2570.303467 
	C1440.763794,2547.645996 1418.639648,2514.647217 1407.776855,2473.659424 
	C1403.745728,2458.448975 1403.704712,2458.947510 1388.774048,2455.713623 
	C1357.850220,2449.015381 1327.057861,2441.709717 1295.425049,2434.443848 
M608.198181,1648.722778 
	C620.784973,1694.072144 636.692932,1738.241699 655.344543,1781.436523 
	C660.274048,1792.852905 662.121521,1793.804199 673.568481,1790.522705 
	C674.368286,1787.877930 675.328430,1785.047852 676.081360,1782.163574 
	C701.920166,1683.187012 727.570984,1584.160767 753.801636,1485.288208 
	C756.669128,1474.479492 754.960083,1468.518433 745.897888,1461.208008 
	C715.735352,1436.876709 703.309204,1404.223999 709.411560,1366.128296 
	C719.244690,1304.741943 778.419922,1267.692627 838.436951,1284.046509 
	C842.885864,1285.258667 847.315552,1286.541504 852.023438,1287.867310 
	C854.937805,1284.548462 857.605713,1281.602173 860.174194,1278.571533 
	C895.517273,1236.870850 930.350830,1194.721191 966.499023,1153.730835 
	C976.588501,1142.289917 979.303284,1133.454102 971.170105,1120.010132 
	C966.901306,1112.953857 963.117737,1110.371094 955.155273,1110.395996 
	C873.490112,1110.651978 791.823853,1110.552734 710.157898,1110.552734 
	C706.546143,1110.552734 702.934326,1110.552734 698.895203,1110.552734 
	C690.317688,1137.342407 678.112915,1161.143188 657.274475,1179.610107 
	C636.472778,1198.044312 611.421814,1207.384155 583.960388,1212.436401 
	C561.405396,1359.667480 568.866028,1504.233398 608.198181,1648.722778 
M970.688049,1042.091553 
	C978.533691,1023.223572 991.726379,1008.457581 1007.651062,995.635864 
	C972.908569,886.392578 938.406555,777.905518 903.653076,668.627808 
	C899.717285,668.627808 896.400452,668.957703 893.172363,668.562561 
	C885.265564,667.594727 877.207947,666.987915 869.582764,664.886780 
	C864.241577,663.414978 860.839417,664.293762 857.219360,668.109192 
	C848.509094,677.289673 839.120483,685.852905 830.741150,695.316528 
	C778.619690,754.182556 734.552979,818.781006 695.448425,886.848145 
	C680.167969,913.446045 666.220581,940.707886 655.257263,969.445435 
	C652.749939,976.017761 653.708557,980.072632 659.079102,984.902649 
	C677.065674,1001.079102 689.164124,1021.188293 696.160645,1044.363403 
	C696.907959,1046.838745 697.998962,1049.210571 698.889587,1051.524170 
	C788.588196,1051.524170 877.755371,1051.524170 966.840088,1051.524170 
	C968.093933,1048.453857 969.098694,1045.993652 970.688049,1042.091553 
M1840.456543,2361.641846 
	C1917.570435,2341.862305 1991.585693,2313.981201 2062.093750,2276.916748 
	C2166.964600,2221.788330 2258.643066,2149.541992 2339.450439,2063.191650 
	C2341.003662,2061.531738 2342.279297,2059.611816 2343.883545,2057.558838 
	C2342.139893,2053.382812 2340.121826,2049.522949 2338.906738,2045.424927 
	C2336.783936,2038.265259 2332.513672,2036.034912 2324.986084,2036.077637 
	C2268.678711,2036.397705 2212.368164,2036.385010 2156.060547,2036.093750 
	C2148.408447,2036.054077 2144.451416,2037.869751 2141.279541,2045.567627 
	C2130.401855,2071.967773 2111.761963,2091.898926 2084.826416,2101.757812 
	C2057.268311,2111.844971 2029.041260,2110.360840 2002.011963,2098.785889 
	C1993.994141,2095.352295 1989.282959,2096.275146 1982.873779,2101.986328 
	C1902.780640,2173.358154 1822.394409,2244.400879 1742.083984,2315.528564 
	C1730.610962,2325.689697 1719.150146,2335.864258 1707.666626,2346.013428 
	C1705.114014,2348.269287 1702.452148,2350.442383 1704.260132,2354.425537 
	C1708.904541,2364.658447 1713.563843,2374.884766 1718.309204,2385.315918 
	C1759.644531,2379.764160 1799.433228,2371.870361 1840.456543,2361.641846 
M866.665588,2092.331787 
	C1018.899719,2243.840088 1200.243530,2339.489014 1412.293701,2377.917725 
	C1418.194336,2366.342773 1423.590210,2355.758301 1429.403809,2344.354492 
	C1364.593994,2281.909668 1300.152954,2219.820068 1235.591431,2157.614258 
	C1232.214478,2159.004639 1229.489258,2160.133057 1226.759033,2161.249512 
	C1200.897095,2171.826416 1174.038452,2172.552246 1148.573853,2162.830566 
	C1112.433472,2149.033203 1089.784058,2122.299072 1084.315308,2082.927979 
	C1083.220215,2075.043701 1083.083130,2067.006348 1082.840698,2059.029297 
	C1082.573730,2050.244873 1082.752075,2050.212158 1074.102295,2047.325073 
	C975.544922,2014.429565 876.985962,1981.539062 778.421814,1948.663696 
	C771.530884,1946.365234 764.596558,1944.196777 757.980225,1942.063843 
	C749.996643,1951.879272 750.013184,1951.867554 756.675964,1961.242676 
	C789.551270,2007.500488 825.800049,2050.929688 866.665588,2092.331787 
z"/>
<path fill="#FEFEFE" opacity="1.000000" stroke="none" 
	d="
M1245.310547,1315.307739 
	C1274.856323,1282.205811 1303.458862,1249.195068 1333.126221,1217.170898 
	C1383.375977,1162.929565 1445.418579,1130.104004 1518.554565,1119.085571 
	C1573.542603,1110.801147 1627.573242,1116.391602 1680.484741,1133.138184 
	C1724.018555,1146.916626 1764.543335,1166.734619 1801.461548,1193.783691 
	C1824.065063,1210.344727 1841.766724,1231.646362 1858.681641,1253.514648 
	C1895.126587,1300.632324 1918.251465,1353.570435 1924.578979,1413.109497 
	C1926.297241,1429.277954 1926.324951,1445.739502 1925.694336,1462.010986 
	C1925.122559,1476.763916 1929.245850,1489.081055 1937.589966,1501.171021 
	C1999.869629,1591.407959 2061.767090,1681.908936 2123.761230,1772.342773 
	C2125.412842,1774.751831 2126.804443,1777.338989 2128.301758,1779.817261 
	C2124.103516,1785.228516 2118.658447,1784.567017 2113.406982,1784.566284 
	C2064.740967,1784.559082 2016.075073,1784.555542 1967.409058,1784.554932 
	C1922.409668,1784.554443 1877.410278,1784.532837 1832.410889,1784.574707 
	C1816.167358,1784.589844 1815.864746,1784.613037 1813.296631,1800.590210 
	C1805.417969,1849.607422 1797.793335,1898.665405 1790.069580,1947.707520 
	C1788.462769,1957.910278 1786.726440,1968.094849 1785.291382,1978.321655 
	C1784.332642,1985.154785 1780.872437,1988.622925 1773.926025,1990.125366 
	C1705.680298,2004.887451 1636.793213,2010.279663 1567.218750,2003.756836 
	C1417.578247,1989.727661 1286.847778,1932.051025 1175.088745,1831.763062 
	C1102.011353,1766.186401 1047.572998,1687.113037 1008.092102,1597.428833 
	C1004.347107,1588.921631 1007.705200,1583.679321 1012.858765,1577.883667 
	C1047.631348,1538.778198 1082.312988,1499.591797 1116.993408,1460.404663 
	C1159.626587,1412.231079 1202.229858,1364.031006 1245.310547,1315.307739 
z"/>
<path fill="#FBFBFB" opacity="1.000000" stroke="none" 
	d="
M1491.458496,898.529114 
	C1478.162964,831.273010 1484.419922,767.199585 1514.308472,705.897949 
	C1519.390991,695.473938 1526.650635,687.890320 1537.642212,683.994141 
	C1545.117188,681.344482 1552.518066,681.418152 1560.192261,683.495789 
	C1582.587280,689.558533 1603.063965,700.031006 1623.109009,711.223145 
	C1698.851807,753.514526 1756.650391,813.191711 1794.636230,891.369263 
	C1819.323486,942.177185 1832.246216,995.813171 1830.245239,1052.644531 
	C1829.277466,1080.134277 1824.039795,1106.848511 1815.842896,1133.018188 
	C1812.886230,1142.457886 1810.325806,1143.531616 1801.286621,1138.627319 
	C1767.537964,1120.316528 1732.574219,1104.863892 1695.922119,1093.361450 
	C1664.378784,1083.462402 1632.155762,1076.795654 1599.217773,1073.701660 
	C1597.891235,1073.577026 1596.564209,1073.334839 1595.238647,1073.343628 
	C1583.274170,1073.422852 1574.952148,1067.862427 1567.601196,1058.407593 
	C1530.646484,1010.876831 1504.287476,958.429260 1491.458496,898.529114 
z"/>
<path fill="#FCFCFD" opacity="1.000000" stroke="none" 
	d="
M1227.942261,2946.178955 
	C1244.767822,2950.810303 1260.828613,2955.128418 1276.771484,2959.845215 
	C1281.514160,2961.248047 1285.958862,2963.698730 1290.483276,2965.791992 
	C1333.221680,2985.568359 1331.897949,3034.649170 1312.676025,3060.933350 
	C1300.924927,3077.001953 1284.781982,3086.948486 1266.003052,3091.647217 
	C1220.669922,3102.989746 1176.791992,3097.854980 1134.782227,3077.320068 
	C1131.803467,3075.863770 1129.031128,3073.969482 1126.228638,3072.176025 
	C1124.861206,3071.301514 1123.645752,3070.189209 1121.926392,3068.844238 
	C1128.119019,3054.994873 1134.201050,3041.392578 1140.685425,3026.890625 
	C1143.639771,3028.476074 1146.145996,3029.757324 1148.592407,3031.144043 
	C1177.243164,3047.387695 1207.666260,3055.326660 1240.661377,3050.109375 
	C1246.456177,3049.193115 1252.442261,3047.279785 1257.508545,3044.375977 
	C1272.724976,3035.655273 1273.241089,3016.400391 1257.848145,3008.193115 
	C1247.440674,3002.644043 1235.597168,2999.599609 1224.166870,2996.207275 
	C1211.416260,2992.423340 1198.283081,2989.921387 1185.553101,2986.077637 
	C1177.319702,2983.591797 1169.347046,2980.048584 1161.541016,2976.376465 
	C1130.427246,2961.740723 1121.123901,2931.483398 1129.574341,2900.782471 
	C1136.099609,2877.075439 1152.816650,2862.579346 1174.831055,2853.483154 
	C1195.937256,2844.761963 1218.156738,2843.108643 1240.585571,2844.334229 
	C1263.710815,2845.597656 1286.101196,2850.456055 1306.957764,2861.049316 
	C1308.441284,2861.802734 1309.877686,2862.653320 1311.303955,2863.512207 
	C1312.139038,2864.015137 1312.910767,2864.623047 1314.907959,2866.022705 
	C1309.237305,2879.820068 1303.497681,2893.785400 1297.524414,2908.319336 
	C1293.273193,2906.270752 1289.772827,2904.509277 1286.212158,2902.879639 
	C1261.383911,2891.515625 1235.599854,2886.278320 1208.477905,2891.998047 
	C1202.785034,2893.198486 1197.113159,2895.959961 1192.220337,2899.195312 
	C1181.414551,2906.340088 1177.700439,2926.778076 1194.219116,2934.774658 
	C1204.577026,2939.789307 1216.120850,2942.354248 1227.942261,2946.178955 
z"/>
<path fill="#FCFCFD" opacity="1.000000" stroke="none" 
	d="
M1791.313965,3045.908447 
	C1793.695923,3044.499268 1795.505615,3043.566406 1797.008301,3042.275879 
	C1808.648804,3032.277832 1808.038574,3016.628662 1795.033936,3008.651367 
	C1788.614746,3004.713867 1781.242798,3001.957275 1773.955811,2999.882812 
	C1758.277222,2995.419434 1742.244751,2992.184326 1726.610718,2987.585205 
	C1716.768311,2984.690186 1707.159912,2980.719727 1697.834595,2976.395264 
	C1657.716187,2957.791016 1657.356567,2914.700928 1670.400513,2888.764160 
	C1679.064575,2871.536133 1693.209839,2859.883057 1711.023315,2853.645264 
	C1757.768066,2837.276123 1803.352539,2841.329102 1847.468628,2863.496826 
	C1848.333374,2863.931152 1849.073242,2864.613770 1851.082886,2866.041260 
	C1845.432617,2879.819824 1839.707642,2893.780273 1833.758301,2908.288086 
	C1829.741455,2906.395020 1826.496460,2904.897461 1823.278687,2903.343506 
	C1802.148438,2893.141113 1779.922607,2888.458496 1756.446411,2890.012695 
	C1747.700317,2890.591797 1739.273438,2892.400879 1731.632080,2896.855225 
	C1723.874512,2901.376709 1719.529419,2908.006836 1719.422119,2917.240723 
	C1719.314697,2926.482910 1724.397339,2932.404785 1732.118408,2935.885010 
	C1739.356201,2939.146973 1746.991333,2941.668701 1754.642822,2943.843262 
	C1774.157959,2949.389893 1793.813843,2954.440918 1813.333008,2959.973877 
	C1817.766968,2961.230957 1821.894043,2963.596680 1826.130249,2965.522217 
	C1870.067993,2985.494873 1868.130981,3035.926514 1848.065918,3062.052002 
	C1836.395508,3077.247314 1820.846069,3086.958252 1802.792236,3091.490723 
	C1756.417358,3103.132812 1711.590576,3097.969482 1668.886963,3076.136963 
	C1665.369751,3074.338623 1662.168701,3071.921387 1657.961670,3069.245361 
	C1664.274780,3055.110352 1670.450439,3041.283203 1676.915161,3026.808838 
	C1679.761475,3028.358887 1682.032837,3029.539551 1684.251343,3030.812256 
	C1712.507812,3047.023682 1742.570068,3055.014893 1775.260376,3050.384521 
	C1780.465698,3049.647217 1785.490967,3047.639648 1791.313965,3045.908447 
z"/>
<path fill="#F7F8FB" opacity="1.000000" stroke="none" 
	d="
M1333.674072,1110.361572 
	C1320.114990,1071.292114 1316.514771,1032.214111 1326.260132,992.638733 
	C1329.737427,978.518494 1335.289062,964.795166 1341.031738,951.377625 
	C1347.207397,936.948059 1358.897217,931.869385 1373.786865,937.231750 
	C1386.268799,941.726929 1398.465088,947.291443 1410.230713,953.447388 
	C1444.050781,971.142395 1472.893921,995.198975 1496.137451,1025.385010 
	C1506.858032,1039.307617 1515.356201,1054.947510 1524.735718,1069.888184 
	C1525.711670,1071.442871 1525.825562,1073.538940 1526.687500,1076.633423 
	C1522.327759,1077.393799 1518.600098,1078.347656 1514.819702,1078.655396 
	C1482.726807,1081.267700 1451.683716,1088.352417 1421.817139,1100.403076 
	C1401.024048,1108.792725 1381.661743,1119.789551 1363.577759,1133.039429 
	C1361.428467,1134.614136 1359.351929,1136.291748 1357.161011,1137.804688 
	C1349.800293,1142.887695 1347.283081,1142.332886 1343.550171,1134.131958 
	C1340.105469,1126.564087 1337.121460,1118.786499 1333.674072,1110.361572 
z"/>
<path fill="#FCFCFD" opacity="1.000000" stroke="none" 
	d="
M1877.272095,2924.892578 
	C1874.492188,2918.408936 1872.040161,2912.616699 1869.581787,2906.809570 
	C1876.426880,2904.261230 1905.189209,2903.572510 1925.251587,2905.437988 
	C1942.332764,2946.589111 1959.621338,2988.239990 1976.910034,3029.890869 
	C1977.588379,3029.989746 1978.266846,3030.088623 1978.945312,3030.187500 
	C1996.270264,2988.668457 2013.595337,2947.149414 2031.071045,2905.269531 
	C2048.176514,2905.269531 2064.987061,2905.269531 2082.702637,2905.269531 
	C2081.803711,2908.046143 2081.280518,2910.208496 2080.423584,2912.229248 
	C2053.139160,2976.589600 2025.853882,3040.949707 1998.463501,3105.265137 
	C1995.599487,3111.989990 1992.468994,3118.659912 1988.810059,3124.977539 
	C1972.449219,3153.227783 1947.745972,3167.435791 1908.506470,3162.911377 
	C1893.809570,3161.217041 1879.925293,3156.840088 1867.870239,3146.396729 
	C1874.498047,3133.632324 1881.024170,3121.063477 1887.088501,3109.384033 
	C1896.071411,3112.871338 1903.766235,3117.128906 1911.986938,3118.801514 
	C1933.032593,3123.083740 1942.711060,3111.948486 1948.472046,3097.334717 
	C1949.558105,3094.579346 1948.071045,3090.311523 1946.742065,3087.178223 
	C1930.364868,3048.563477 1913.796997,3010.029297 1897.276123,2971.475586 
	C1890.720459,2956.177002 1884.158813,2940.881348 1877.272095,2924.892578 
z"/>
<path fill="#FCFCFD" opacity="1.000000" stroke="none" 
	d="
M2100.413574,3083.688477 
	C2095.017090,3081.028320 2090.341309,3078.638184 2084.744629,3075.777344 
	C2090.956055,3062.545654 2096.826904,3050.039062 2102.678955,3037.573242 
	C2112.348389,3041.381836 2121.167480,3045.204590 2130.222656,3048.345215 
	C2146.184814,3053.881104 2162.745117,3055.471680 2179.489502,3053.857178 
	C2184.996826,3053.326172 2190.553467,3051.600342 2195.695068,3049.472412 
	C2200.656982,3047.418457 2203.182373,3042.794434 2203.130371,3037.391846 
	C2203.075439,3031.668457 2199.473633,3027.891846 2194.328125,3026.527832 
	C2184.714111,3023.979980 2174.921631,3022.097900 2165.186523,3020.018311 
	C2152.834717,3017.379639 2140.453125,3014.878418 2128.115234,3012.177979 
	C2125.536377,3011.613525 2123.073730,3010.484619 2120.586914,3009.539062 
	C2080.029297,2994.119385 2083.103027,2944.120117 2106.760742,2923.945068 
	C2119.067627,2913.450439 2133.287598,2907.358643 2148.909180,2904.634521 
	C2178.724365,2899.435547 2207.968018,2902.355957 2236.478271,2912.405029 
	C2240.486572,2913.817383 2244.225342,2915.994629 2249.200684,2918.343018 
	C2243.055420,2931.461182 2237.203857,2943.952148 2231.241699,2956.678955 
	C2229.366943,2956.153564 2228.022217,2956.025146 2226.928223,2955.433105 
	C2208.120361,2945.253174 2187.817139,2942.510010 2166.914307,2944.263428 
	C2160.514404,2944.800049 2153.649658,2946.821533 2148.202148,2950.140137 
	C2138.562500,2956.012451 2139.443604,2967.996826 2150.024902,2971.916748 
	C2160.517090,2975.803711 2171.789551,2977.773926 2182.854736,2979.875732 
	C2197.244141,2982.609131 2211.597412,2985.051758 2225.370361,2990.481445 
	C2264.027344,3005.719482 2262.455322,3054.755859 2237.038330,3075.215820 
	C2223.625488,3086.012695 2208.207520,3091.610596 2191.482178,3094.056152 
	C2160.508301,3098.584961 2130.398193,3094.948975 2100.413574,3083.688477 
z"/>
<path fill="#AECDF4" opacity="1.000000" stroke="none" 
	d="
M2332.085449,695.524109 
	C2311.810059,752.497742 2240.974609,754.306030 2210.754883,723.223267 
	C2188.992920,700.839844 2182.666260,668.382690 2195.788330,639.292297 
	C2208.392090,611.350708 2236.554932,594.940369 2268.834229,597.417114 
	C2299.511963,599.770874 2319.446289,617.016296 2331.591797,644.377686 
	C2332.395752,646.188110 2333.204834,648.156982 2333.311523,650.090881 
	C2334.135742,664.993042 2335.525391,679.922241 2332.085449,695.524109 
z"/>
<path fill="#AECDF4" opacity="1.000000" stroke="none" 
	d="
M2572.633789,1003.385010 
	C2555.656738,985.621948 2546.869385,965.638245 2549.928223,941.280823 
	C2553.928223,909.424744 2577.316162,884.486938 2608.072510,877.881287 
	C2643.197021,870.337646 2675.347900,890.053101 2687.680420,914.260132 
	C2690.779297,920.342468 2692.937256,927.321289 2693.673096,934.089661 
	C2694.709473,943.622925 2694.398682,953.360962 2693.979736,962.981628 
	C2693.187012,981.174377 2684.482910,995.343567 2670.071777,1005.934082 
	C2663.409180,1010.830444 2656.515381,1016.794922 2648.845947,1018.665649 
	C2629.982178,1023.266724 2610.494873,1024.201172 2592.014648,1016.622681 
	C2585.136963,1013.802246 2579.395508,1008.211426 2572.633789,1003.385010 
z"/>
<path fill="#FAFAFB" opacity="1.000000" stroke="none" 
	d="
M1083.247192,2898.000488 
	C1083.247192,2963.250977 1083.247192,3027.501221 1083.247192,3091.526367 
	C1075.683838,3093.831787 1039.584717,3094.304199 1026.701416,3092.374023 
	C1026.701416,3011.410156 1026.701416,2930.347412 1026.701416,2848.670410 
	C1045.156128,2848.670410 1063.336304,2848.670410 1082.154907,2848.670410 
	C1084.449951,2856.571045 1082.900391,2864.867920 1083.186279,2873.018066 
	C1083.466309,2881.003174 1083.247192,2889.005615 1083.247192,2898.000488 
z"/>
<path fill="#FAFAFC" opacity="1.000000" stroke="none" 
	d="
M1364.140381,3087.269531 
	C1364.134033,3007.402832 1364.134033,2928.471680 1364.134033,2848.800049 
	C1383.248169,2848.800049 1401.678955,2848.800049 1420.750488,2848.800049 
	C1420.750488,2930.065918 1420.750488,3011.163818 1420.750488,3093.435059 
	C1415.327881,3093.435059 1410.422363,3093.435791 1405.516846,3093.435059 
	C1393.853149,3093.433105 1382.189087,3093.384766 1370.525757,3093.454102 
	C1366.816406,3093.476074 1363.749390,3093.028809 1364.140381,3087.269531 
z"/>
<path fill="#ADCDF3" opacity="1.000000" stroke="none" 
	d="
M2437.825684,559.845215 
	C2426.184814,525.872559 2443.909912,494.611572 2471.495361,484.669067 
	C2502.409424,473.526917 2536.694336,490.110443 2546.274902,521.043152 
	C2556.352783,553.581238 2537.961914,587.107910 2505.118896,594.685425 
	C2476.010254,601.401306 2449.051514,586.782837 2437.825684,559.845215 
z"/>
<path fill="#AECDF3" opacity="1.000000" stroke="none" 
	d="
M2117.019043,387.428650 
	C2097.302734,381.271667 2083.596680,369.610718 2076.783447,350.652039 
	C2068.136963,326.592499 2076.435791,299.692780 2096.950195,284.733185 
	C2117.326416,269.874481 2146.156494,270.140991 2165.959473,285.371552 
	C2186.104248,300.865021 2193.822754,328.036041 2184.804932,351.713165 
	C2175.706787,375.602142 2152.135010,390.680176 2126.710205,388.807892 
	C2123.729248,388.588379 2120.773193,388.028046 2117.019043,387.428650 
z"/>
<path fill="#ADCCF2" opacity="1.000000" stroke="none" 
	d="
M1588.939087,3010.579102 
	C1573.503296,3035.033203 1538.322754,3033.623779 1524.621826,3009.682373 
	C1516.226196,2995.011475 1519.060059,2975.596436 1531.412842,2963.915039 
	C1543.428589,2952.551758 1562.544678,2950.620117 1576.638916,2959.344971 
	C1591.278931,2968.407715 1597.957642,2986.498291 1592.541870,3002.679199 
	C1591.704834,3005.179688 1590.426636,3007.532715 1588.939087,3010.579102 
z"/>
<path fill="#384474" opacity="1.000000" stroke="none" 
	d="
M608.007568,1647.927002 
	C568.866028,1504.233398 561.405396,1359.667480 583.960388,1212.436401 
	C611.421814,1207.384155 636.472778,1198.044312 657.274475,1179.610107 
	C678.112915,1161.143188 690.317688,1137.342407 698.895203,1110.552734 
	C702.934326,1110.552734 706.546143,1110.552734 710.157898,1110.552734 
	C791.823853,1110.552734 873.490112,1110.651978 955.155273,1110.395996 
	C963.117737,1110.371094 966.901306,1112.953857 971.170105,1120.010132 
	C979.303284,1133.454102 976.588501,1142.289917 966.499023,1153.730835 
	C930.350830,1194.721191 895.517273,1236.870850 860.174194,1278.571533 
	C857.605713,1281.602173 854.937805,1284.548462 852.023438,1287.867310 
	C847.315552,1286.541504 842.885864,1285.258667 838.436951,1284.046509 
	C778.419922,1267.692627 719.244690,1304.741943 709.411560,1366.128296 
	C703.309204,1404.223999 715.735352,1436.876709 745.897888,1461.208008 
	C754.960083,1468.518433 756.669128,1474.479492 753.801636,1485.288208 
	C727.570984,1584.160767 701.920166,1683.187012 676.081360,1782.163574 
	C675.328430,1785.047852 674.368286,1787.877930 673.568481,1790.522705 
	C662.121521,1793.804199 660.274048,1792.852905 655.344543,1781.436523 
	C636.692932,1738.241699 620.784973,1694.072144 608.007568,1647.927002 
z"/>
<path fill="#374373" opacity="1.000000" stroke="none" 
	d="
M970.395752,1042.812500 
	C969.098694,1045.993652 968.093933,1048.453857 966.840088,1051.524170 
	C877.755371,1051.524170 788.588196,1051.524170 698.889587,1051.524170 
	C697.998962,1049.210571 696.907959,1046.838745 696.160645,1044.363403 
	C689.164124,1021.188293 677.065674,1001.079102 659.079102,984.902649 
	C653.708557,980.072632 652.749939,976.017761 655.257263,969.445435 
	C666.220581,940.707886 680.167969,913.446045 695.448425,886.848145 
	C734.552979,818.781006 778.619690,754.182556 830.741150,695.316528 
	C839.120483,685.852905 848.509094,677.289673 857.219360,668.109192 
	C860.839417,664.293762 864.241577,663.414978 869.582764,664.886780 
	C877.207947,666.987915 885.265564,667.594727 893.172363,668.562561 
	C896.400452,668.957703 899.717285,668.627808 903.653076,668.627808 
	C938.406555,777.905518 972.908569,886.392578 1007.651062,995.635864 
	C991.726379,1008.457581 978.533691,1023.223572 970.395752,1042.812500 
z"/>
<path fill="#384474" opacity="1.000000" stroke="none" 
	d="
M1839.651611,2361.817383 
	C1799.433228,2371.870361 1759.644531,2379.764160 1718.309204,2385.315918 
	C1713.563843,2374.884766 1708.904541,2364.658447 1704.260132,2354.425537 
	C1702.452148,2350.442383 1705.114014,2348.269287 1707.666626,2346.013428 
	C1719.150146,2335.864258 1730.610962,2325.689697 1742.083984,2315.528564 
	C1822.394409,2244.400879 1902.780640,2173.358154 1982.873779,2101.986328 
	C1989.282959,2096.275146 1993.994141,2095.352295 2002.011963,2098.785889 
	C2029.041260,2110.360840 2057.268311,2111.844971 2084.826416,2101.757812 
	C2111.761963,2091.898926 2130.401855,2071.967773 2141.279541,2045.567627 
	C2144.451416,2037.869751 2148.408447,2036.054077 2156.060547,2036.093750 
	C2212.368164,2036.385010 2268.678711,2036.397705 2324.986084,2036.077637 
	C2332.513672,2036.034912 2336.783936,2038.265259 2338.906738,2045.424927 
	C2340.121826,2049.522949 2342.139893,2053.382812 2343.883545,2057.558838 
	C2342.279297,2059.611816 2341.003662,2061.531738 2339.450439,2063.191650 
	C2258.643066,2149.541992 2166.964600,2221.788330 2062.093750,2276.916748 
	C1991.585693,2313.981201 1917.570435,2341.862305 1839.651611,2361.817383 
z"/>
<path fill="#384474" opacity="1.000000" stroke="none" 
	d="
M866.175171,2091.822266 
	C825.800049,2050.929688 789.551270,2007.500488 756.675964,1961.242676 
	C750.013184,1951.867554 749.996643,1951.879272 757.980225,1942.063843 
	C764.596558,1944.196777 771.530884,1946.365234 778.421814,1948.663696 
	C876.985962,1981.539062 975.544922,2014.429565 1074.102295,2047.325073 
	C1082.752075,2050.212158 1082.573730,2050.244873 1082.840698,2059.029297 
	C1083.083130,2067.006348 1083.220215,2075.043701 1084.315308,2082.927979 
	C1089.784058,2122.299072 1112.433472,2149.033203 1148.573853,2162.830566 
	C1174.038452,2172.552246 1200.897095,2171.826416 1226.759033,2161.249512 
	C1229.489258,2160.133057 1232.214478,2159.004639 1235.591431,2157.614258 
	C1300.152954,2219.820068 1364.593994,2281.909668 1429.403809,2344.354492 
	C1423.590210,2355.758301 1418.194336,2366.342773 1412.293701,2377.917725 
	C1200.243530,2339.489014 1018.899719,2243.840088 866.175171,2091.822266 
z"/>
</svg>
