<svg version="1.1" id="Layer_1" xmlns="http://www.w3.org/2000/svg" xmlns:xlink="http://www.w3.org/1999/xlink" x="0px" y="0px"
	 width="100%" viewBox="0 0 3200 3200" enable-background="new 0 0 3200 3200" xml:space="preserve">
	
<path fill="#364271" opacity="1.000000" stroke="none"
						d="
M1766.000000,3202.000000 
	C1177.333496,3202.000000 589.666870,3202.000000 2.000237,3202.000000 
	C2.000158,2135.333740 2.000158,1068.667236 2.000079,2.000666 
	C1068.666138,2.000444 2135.332275,2.000444 3201.999023,2.000222 
	C3201.999268,1068.666016 3201.999268,2135.332031 3201.999512,3201.999023 
	C2723.666748,3202.000000 2245.333252,3202.000000 1766.000000,3202.000000 
M598.451111,2025.554077 
	C624.197754,1927.022461 649.944336,1828.490845 675.692810,1729.952148 
	C678.189514,1729.619873 679.812134,1729.181396 681.422180,1729.223755 
	C701.181885,1729.743774 718.901611,1723.156494 735.007812,1712.555664 
	C769.788635,1689.663696 790.440979,1658.482910 789.733032,1615.424561 
	C789.645386,1610.092896 789.500732,1604.747681 789.767151,1599.427979 
	C790.243164,1589.923096 788.497925,1580.800293 785.014771,1572.077515 
	C781.336792,1562.866699 777.108948,1553.875488 772.795105,1544.044800 
	C822.228027,1485.670288 871.889648,1427.025757 921.944153,1367.917236 
	C940.413940,1378.227417 959.608704,1376.290527 978.537476,1376.287720 
	C984.516785,1376.286743 990.706482,1376.726685 996.439453,1375.403320 
	C1024.350098,1368.960571 1047.564087,1354.671997 1064.990845,1331.768677 
	C1080.313110,1311.631226 1090.068359,1289.431274 1088.314331,1263.350952 
	C1087.535034,1251.764526 1089.024902,1239.631104 1086.091675,1228.652710 
	C1073.898315,1183.016602 1044.321045,1153.823730 998.567505,1141.722900 
	C988.727173,1139.120361 978.353210,1138.535034 967.289612,1136.880615 
	C927.144470,1010.590332 886.824463,883.749878 846.753845,757.693909 
	C857.323792,747.576111 866.872314,738.436035 876.948975,728.790466 
	C947.689636,754.450745 1018.697571,780.208008 1089.797363,805.998535 
	C1090.489502,809.728210 1091.128784,812.965942 1091.687744,816.217407 
	C1097.010620,847.181213 1114.290527,868.903809 1142.582764,882.129639 
	C1149.017212,885.137573 1155.682373,886.678589 1162.881470,886.456543 
	C1172.538330,886.158630 1182.233521,886.774536 1191.869507,886.235291 
	C1197.743652,885.906494 1203.912842,885.062439 1209.302002,882.863220 
	C1231.616699,873.757202 1247.719360,857.961182 1256.878662,835.573059 
	C1258.849854,830.754761 1260.044067,825.338440 1260.264771,820.141113 
	C1260.759155,808.496094 1260.597656,796.811096 1260.312378,785.151978 
	C1260.216797,781.241150 1259.412842,777.193787 1258.125977,773.489075 
	C1239.436279,719.685303 1173.007812,699.252319 1126.359375,732.906921 
	C1122.334351,735.810852 1118.543457,739.039246 1114.281006,742.403198 
	C1042.029297,716.180603 969.819153,689.973083 897.174561,663.607849 
	C897.174561,651.410522 897.174561,640.154968 897.174561,628.462402 
	C945.711609,586.433167 1091.932739,510.338715 1189.049805,476.639038 
	C1250.439331,455.336792 1313.030518,438.805237 1377.055542,427.670319 
	C1378.894287,431.696533 1380.266846,434.706512 1381.642822,437.714844 
	C1404.790771,488.323853 1442.857422,522.451111 1495.359985,540.615173 
	C1507.415649,544.786072 1519.694946,547.078064 1532.595337,546.705444 
	C1549.247314,546.224487 1565.928101,546.804504 1582.587158,546.467407 
	C1588.849731,546.340698 1595.233276,545.513794 1601.309937,543.997742 
	C1630.959106,536.600586 1657.087158,522.421387 1679.984497,502.216766 
	C1681.879272,500.544830 1684.013916,499.144775 1686.440674,497.313843 
	C1756.610840,570.670471 1826.306152,643.530701 1895.654419,716.028137 
	C1893.268188,721.046387 1891.507080,724.635742 1889.842651,728.269470 
	C1879.822021,750.145752 1876.805054,773.194275 1881.075684,796.637390 
	C1892.926514,861.691040 1947.369751,906.587219 2023.201782,894.834412 
	C2077.434570,886.429138 2117.755859,836.605042 2117.684814,782.000000 
	C2117.671875,772.025391 2118.660400,761.744751 2116.656738,752.132751 
	C2109.723877,718.871887 2091.480469,692.821167 2062.434326,675.112671 
	C2027.288086,653.685303 1990.302856,651.752197 1952.218140,666.835571 
	C1950.114990,667.668640 1947.922607,668.276550 1945.302856,669.144531 
	C1872.134644,592.746216 1799.120117,516.508545 1726.875732,441.074921 
	C1731.026489,427.383514 1737.268555,415.144867 1738.028564,402.574799 
	C1739.689575,375.104248 1738.565674,347.465332 1738.579468,319.895203 
	C1717.826172,226.357147 1627.958984,157.464172 1523.809937,175.013214 
	C1449.492676,187.535629 1399.943848,231.902908 1374.729858,302.983704 
	C1371.410522,312.341125 1369.523926,322.206757 1366.763428,332.631195 
	C1174.303345,366.005737 997.906006,439.088989 838.689392,552.031738 
	C789.932556,528.843689 743.434692,530.565979 702.151917,565.063660 
	C659.755493,600.491943 650.697388,647.028870 665.843445,699.535278 
	C550.925110,817.985657 458.186096,951.601562 394.529724,1103.398804 
	C320.657013,1107.703369 267.124084,1140.743530 244.904694,1210.917480 
	C220.887085,1286.770630 248.391937,1347.125732 312.986755,1392.319214 
	C274.108856,1648.212769 304.466309,1895.389160 410.084625,2132.759033 
	C408.516174,2135.092041 407.100891,2137.329346 405.556976,2139.474365 
	C375.918182,2180.650146 373.543091,2233.382324 401.204803,2275.566406 
	C423.785645,2310.001709 455.475311,2329.887695 498.046906,2329.169678 
	C503.045227,2329.085449 508.075897,2329.502197 513.038452,2329.072754 
	C519.118347,2328.546875 522.665710,2331.219971 526.054871,2336.081299 
	C569.041931,2397.736084 616.939026,2455.290527 669.921265,2508.654053 
	C760.030518,2599.412109 861.039551,2675.633789 973.591858,2736.336914 
	C1095.082031,2801.860840 1223.847656,2846.688477 1359.935791,2870.258789 
	C1362.466064,2870.697021 1364.894409,2871.722168 1367.257812,2872.439453 
	C1368.115112,2876.229492 1368.816406,2879.468506 1369.581543,2882.692139 
	C1385.456787,2949.567627 1425.290039,2995.813965 1489.274170,3020.920898 
	C1502.584229,3026.143555 1516.339233,3030.095215 1531.035400,3029.756348 
	C1547.692383,3029.371826 1564.365967,3029.758545 1581.030396,3029.604004 
	C1585.321289,3029.564453 1589.722534,3029.232178 1593.874512,3028.219971 
	C1668.924072,3009.920898 1716.439453,2963.065674 1737.739014,2889.133057 
	C1738.547607,2886.326172 1739.326294,2883.510742 1739.937012,2881.344482 
	C1770.413696,2876.212891 1800.029907,2871.665771 1829.473755,2866.192139 
	C1952.890259,2843.248535 2069.956055,2801.788574 2181.041016,2743.604492 
	C2316.442871,2672.683594 2435.137207,2579.991699 2537.956787,2466.953369 
	C2542.282959,2462.197266 2546.407471,2459.950684 2553.267334,2460.228760 
	C2568.550781,2460.848877 2584.225830,2462.000732 2599.149414,2459.459717 
	C2650.880127,2450.650635 2691.244141,2401.281738 2691.249756,2348.795898 
	C2691.250244,2344.129395 2690.996582,2339.446777 2691.296387,2334.799561 
	C2692.292969,2319.353027 2687.792236,2305.169434 2681.673584,2291.328613 
	C2680.469482,2288.604980 2679.114502,2285.947754 2677.624756,2282.832764 
	C2680.721924,2277.719238 2683.816895,2272.609863 2686.911377,2267.500000 
	C2757.203125,2151.425537 2807.921387,2027.373901 2838.000000,1895.025635 
	C2840.227539,1885.223755 2844.942871,1882.170776 2853.974854,1879.822510 
	C2928.266602,1860.506348 2982.416260,1792.518433 2966.873535,1702.631226 
	C2956.778076,1644.245361 2920.750488,1604.103638 2864.106689,1585.549927 
	C2808.795410,1567.432983 2758.302246,1578.875122 2713.833008,1616.507812 
	C2711.343994,1618.613892 2708.794434,1620.648560 2705.825439,1623.083618 
	C2620.165527,1566.496582 2534.910156,1510.176636 2448.937256,1453.382568 
	C2457.914551,1432.976562 2458.229248,1412.102783 2458.108643,1391.037720 
	C2458.027100,1376.809448 2455.527832,1363.194702 2450.916260,1349.920166 
	C2425.834961,1277.725830 2355.424316,1235.677979 2279.893311,1247.652954 
	C2194.890869,1261.129395 2136.497314,1345.761230 2154.634277,1429.916870 
	C2170.630127,1504.135986 2236.276855,1562.891113 2329.552490,1551.134033 
	C2357.850830,1547.567139 2383.008545,1535.149292 2404.820557,1516.462402 
	C2407.031738,1514.567993 2409.364258,1512.815063 2412.089111,1510.637939 
	C2498.303955,1567.630371 2584.131348,1624.366699 2670.573730,1681.509521 
	C2658.851074,1718.099854 2659.494141,1754.071655 2673.933838,1789.368164 
	C2688.354004,1824.616333 2713.236816,1850.610474 2746.112793,1868.252319 
	C2735.409912,1951.199219 2639.737549,2183.080078 2599.002930,2225.123779 
	C2568.775146,2219.186768 2539.617188,2222.861572 2512.579834,2238.880371 
	C2485.671387,2254.822510 2467.467773,2277.909424 2457.847900,2307.667480 
	C2383.172852,2307.667480 2308.996094,2307.667480 2235.037354,2307.667480 
	C2213.563232,2241.386719 2144.404785,2207.797852 2082.139160,2228.564453 
	C2052.740967,2238.369385 2030.044434,2256.834961 2015.060181,2283.836426 
	C1995.351318,2319.351318 1994.982300,2356.248291 2010.593994,2393.831543 
	C1897.246094,2494.253906 1784.293213,2594.326416 1671.430298,2694.319092 
	C1596.590698,2642.784912 1521.141724,2641.216553 1444.046509,2689.108398 
	C1368.301514,2616.055664 1292.605103,2543.049805 1216.570312,2469.717529 
	C1228.326416,2450.231689 1229.383789,2429.740723 1228.442139,2408.878174 
	C1228.246948,2404.553467 1228.608154,2400.199219 1228.324463,2395.884277 
	C1228.063965,2391.925049 1227.640869,2387.909180 1226.672363,2384.073975 
	C1204.526245,2296.373535 1095.635498,2264.149414 1029.160522,2325.571289 
	C1026.764771,2327.784912 1024.260864,2329.881592 1021.744446,2332.088135 
	C887.691223,2287.320068 754.150513,2242.723145 621.307190,2198.359131 
	C620.330078,2192.139160 619.900330,2187.147461 618.730408,2182.335938 
	C612.813049,2157.998047 600.684937,2137.242920 581.598206,2120.956055 
	C576.503601,2116.608643 575.576904,2112.794434 577.342712,2106.408691 
	C584.619690,2080.091553 591.229919,2053.589600 598.451111,2025.554077 
M2042.105835,1822.784912 
	C2024.037720,1796.387329 2006.457886,1769.635132 1987.670532,1743.759766 
	C1979.705444,1732.790039 1977.013184,1722.083130 1978.000488,1708.606079 
	C1982.243896,1650.690796 1971.924072,1595.103516 1948.489014,1541.981689 
	C1931.406006,1503.258301 1908.418213,1468.236328 1880.429810,1436.632446 
	C1867.218994,1421.715210 1853.993652,1406.176758 1838.247314,1394.259399 
	C1792.775513,1359.844116 1742.027344,1334.838379 1687.575562,1317.990967 
	C1653.167114,1307.344971 1617.878296,1300.593506 1581.685669,1298.795288 
	C1526.701172,1296.063232 1473.291748,1303.244995 1421.952759,1323.302856 
	C1370.987549,1343.214600 1326.193481,1372.886841 1288.385864,1412.431030 
	C1265.375977,1436.497803 1243.584351,1461.739380 1221.494263,1486.673706 
	C1161.853638,1553.993652 1102.358643,1621.442383 1042.781616,1688.818604 
	C996.889160,1740.718994 951.026184,1792.645874 904.945435,1844.378662 
	C900.279663,1849.616455 899.233521,1854.223145 902.262085,1860.496216 
	C911.528564,1879.690063 919.767334,1899.413086 929.702637,1918.245972 
	C1003.698303,2058.509521 1109.966431,2167.415527 1248.609741,2244.478027 
	C1336.438232,2293.295654 1430.496094,2323.409668 1530.130981,2335.819336 
	C1600.614014,2344.598145 1671.136108,2344.000732 1741.436646,2333.570312 
	C1761.844238,2330.542236 1782.016968,2325.956787 1802.347046,2322.366455 
	C1808.730957,2321.239014 1812.162720,2318.638916 1812.975586,2311.641113 
	C1814.434692,2299.082520 1816.981934,2286.653076 1818.963623,2274.152100 
	C1824.022705,2242.238281 1829.034302,2210.317139 1834.039185,2178.394531 
	C1838.322510,2151.074463 1842.436401,2123.727295 1846.890503,2096.435059 
	C1849.085449,2082.985840 1850.351318,2082.193848 1863.686157,2082.194336 
	C1976.006226,2082.198730 2088.326172,2082.202148 2200.646240,2082.203125 
	C2202.979004,2082.203369 2205.497559,2082.727051 2207.598877,2082.021729 
	C2210.440918,2081.067871 2212.962646,2079.159668 2216.458008,2077.189697 
	C2158.100586,1992.038208 2100.510742,1908.006592 2042.105835,1822.784912 
M1627.159790,1253.067871 
	C1638.245605,1255.311401 1649.308472,1257.676514 1660.421997,1259.773438 
	C1684.042480,1264.229858 1706.961792,1271.264526 1729.532104,1279.289185 
	C1765.331055,1292.017456 1799.975464,1307.431641 1833.124023,1326.103882 
	C1842.451172,1331.357788 1845.939941,1330.052246 1849.207397,1319.609375 
	C1858.496582,1289.920898 1864.742432,1259.627075 1866.200562,1228.475464 
	C1868.440063,1180.633911 1860.998413,1134.193359 1846.022827,1088.808105 
	C1830.002197,1040.255493 1806.119751,995.881226 1775.151245,955.325256 
	C1727.825439,893.348145 1668.706421,845.667969 1598.594727,811.762024 
	C1581.286499,803.391846 1563.800781,795.262024 1544.694092,791.033203 
	C1529.227051,787.609985 1507.630005,796.569763 1499.268433,812.510986 
	C1475.592163,857.649292 1463.478882,905.721558 1461.680664,956.296448 
	C1459.662354,1013.060425 1471.052002,1067.479126 1492.756226,1119.960327 
	C1510.727051,1163.413818 1535.047363,1202.830078 1564.856812,1239.063232 
	C1569.732056,1244.988892 1575.248413,1247.563721 1582.757202,1248.132935 
	C1597.024780,1249.214478 1611.229858,1251.119995 1627.159790,1253.067871 
M1476.529419,1194.257568 
	C1475.869995,1193.507690 1475.178955,1192.783325 1474.555786,1192.004395 
	C1437.095703,1145.184692 1390.099854,1111.420166 1334.186890,1090.101807 
	C1318.105713,1083.970337 1300.898560,1086.848267 1292.762085,1106.333008 
	C1286.877563,1120.424683 1280.385132,1134.508057 1276.707153,1149.230469 
	C1264.866333,1196.629028 1267.792114,1243.682983 1283.585571,1289.843994 
	C1287.454590,1301.152832 1292.257080,1312.180054 1297.250244,1323.052124 
	C1300.245117,1329.572754 1304.195068,1330.158325 1310.062256,1326.196899 
	C1311.159546,1325.455933 1312.083740,1324.463867 1313.138428,1323.653809 
	C1341.883911,1301.577759 1373.483032,1284.611450 1407.785156,1273.199951 
	C1438.158081,1263.095337 1469.443970,1256.674316 1501.551270,1254.949463 
	C1511.401733,1254.420288 1512.934082,1251.909180 1507.706177,1243.373169 
	C1497.825439,1227.239502 1487.502319,1211.377075 1476.529419,1194.257568 
M2440.093506,722.972839 
	C2417.645264,696.246399 2388.682129,686.617737 2355.033936,692.908569 
	C2317.882080,699.854370 2290.857422,730.103394 2286.744385,768.260315 
	C2282.599365,806.714294 2303.813232,840.640930 2335.176758,854.949097 
	C2357.986816,865.355225 2382.221191,864.189880 2405.371582,856.971619 
	C2425.125977,850.812317 2439.128418,836.047180 2449.091553,817.901367 
	C2453.954102,809.045349 2457.119141,799.741394 2456.449463,789.294373 
	C2455.938721,781.330261 2455.995117,773.287476 2456.439941,765.315491 
	C2456.960693,755.987061 2454.690430,747.454285 2450.325195,739.427185 
	C2447.469727,734.175964 2444.109131,729.199402 2440.093506,722.972839 
M2856.303223,1165.304810 
	C2864.054443,1157.778809 2869.909668,1148.961304 2874.231689,1139.085449 
	C2880.197266,1125.454346 2880.373535,1084.151001 2874.609131,1070.476074 
	C2859.848145,1035.457520 2824.150879,1016.838257 2794.143066,1018.059509 
	C2758.593506,1019.506348 2732.134521,1035.809814 2717.093994,1067.779907 
	C2702.036865,1099.784546 2706.015625,1131.125244 2728.155518,1158.748657 
	C2743.530762,1177.931885 2763.395508,1190.082764 2789.526123,1188.102173 
	C2795.156494,1187.675415 2800.870117,1187.709595 2806.503906,1188.112549 
	C2816.178955,1188.804688 2825.185303,1186.517700 2833.289795,1181.681152 
	C2840.954834,1177.106812 2847.986816,1171.471802 2856.303223,1165.304810 
M2173.020996,430.011353 
	C2189.926514,444.678223 2209.295654,450.358643 2231.441406,446.183960 
	C2259.480225,440.898438 2281.420166,417.786163 2285.548340,389.059296 
	C2289.460693,361.834595 2274.935547,333.219147 2250.627441,320.261993 
	C2225.030029,306.617737 2193.448242,310.784363 2172.527832,330.074158 
	C2144.371094,356.036621 2143.204346,402.230682 2173.020996,430.011353 
M2574.239014,635.820312 
	C2575.023438,638.707947 2575.653320,641.648254 2576.615967,644.475159 
	C2586.961426,674.846985 2615.932129,693.249939 2648.277100,690.054749 
	C2678.283936,687.090454 2703.703369,662.595825 2707.741943,632.753601 
	C2712.005615,601.247314 2694.777100,571.126343 2665.480469,559.965210 
	C2637.999512,549.495667 2604.557861,556.368835 2584.984863,584.529907 
	C2574.523926,599.580566 2572.131836,616.316101 2574.239014,635.820312 
z"/>
<path fill="#AFCFF5" opacity="1.000000" stroke="none"
						d="
M598.268188,2026.354980 
	C591.229919,2053.589600 584.619690,2080.091553 577.342712,2106.408691 
	C575.576904,2112.794434 576.503601,2116.608643 581.598206,2120.956055 
	C600.684937,2137.242920 612.813049,2157.998047 618.730408,2182.335938 
	C619.900330,2187.147461 620.330078,2192.139160 621.307190,2198.359131 
	C754.150513,2242.723145 887.691223,2287.320068 1021.744446,2332.088135 
	C1024.260864,2329.881592 1026.764771,2327.784912 1029.160522,2325.571289 
	C1095.635498,2264.149414 1204.526245,2296.373535 1226.672363,2384.073975 
	C1227.640869,2387.909180 1228.063965,2391.925049 1228.324463,2395.884277 
	C1228.608154,2400.199219 1228.246948,2404.553467 1228.442139,2408.878174 
	C1229.383789,2429.740723 1228.326416,2450.231689 1216.570312,2469.717529 
	C1292.605103,2543.049805 1368.301514,2616.055664 1444.046509,2689.108398 
	C1521.141724,2641.216553 1596.590698,2642.784912 1671.430298,2694.319092 
	C1784.293213,2594.326416 1897.246094,2494.253906 2010.593994,2393.831543 
	C1994.982300,2356.248291 1995.351318,2319.351318 2015.060181,2283.836426 
	C2030.044434,2256.834961 2052.740967,2238.369385 2082.139160,2228.564453 
	C2144.404785,2207.797852 2213.563232,2241.386719 2235.037354,2307.667480 
	C2308.996094,2307.667480 2383.172852,2307.667480 2457.847900,2307.667480 
	C2467.467773,2277.909424 2485.671387,2254.822510 2512.579834,2238.880371 
	C2539.617188,2222.861572 2568.775146,2219.186768 2599.002930,2225.123779 
	C2639.737549,2183.080078 2735.409912,1951.199219 2746.112793,1868.252319 
	C2713.236816,1850.610474 2688.354004,1824.616333 2673.933838,1789.368164 
	C2659.494141,1754.071655 2658.851074,1718.099854 2670.573730,1681.509521 
	C2584.131348,1624.366699 2498.303955,1567.630371 2412.089111,1510.637939 
	C2409.364258,1512.815063 2407.031738,1514.567993 2404.820557,1516.462402 
	C2383.008545,1535.149292 2357.850830,1547.567139 2329.552490,1551.134033 
	C2236.276855,1562.891113 2170.630127,1504.135986 2154.634277,1429.916870 
	C2136.497314,1345.761230 2194.890869,1261.129395 2279.893311,1247.652954 
	C2355.424316,1235.677979 2425.834961,1277.725830 2450.916260,1349.920166 
	C2455.527832,1363.194702 2458.027100,1376.809448 2458.108643,1391.037720 
	C2458.229248,1412.102783 2457.914551,1432.976562 2448.937256,1453.382568 
	C2534.910156,1510.176636 2620.165527,1566.496582 2705.825439,1623.083618 
	C2708.794434,1620.648560 2711.343994,1618.613892 2713.833008,1616.507812 
	C2758.302246,1578.875122 2808.795410,1567.432983 2864.106689,1585.549927 
	C2920.750488,1604.103638 2956.778076,1644.245361 2966.873535,1702.631226 
	C2982.416260,1792.518433 2928.266602,1860.506348 2853.974854,1879.822510 
	C2844.942871,1882.170776 2840.227539,1885.223755 2838.000000,1895.025635 
	C2807.921387,2027.373901 2757.203125,2151.425537 2686.911377,2267.500000 
	C2683.816895,2272.609863 2680.721924,2277.719238 2677.624756,2282.832764 
	C2679.114502,2285.947754 2680.469482,2288.604980 2681.673584,2291.328613 
	C2687.792236,2305.169434 2692.292969,2319.353027 2691.296387,2334.799561 
	C2690.996582,2339.446777 2691.250244,2344.129395 2691.249756,2348.795898 
	C2691.244141,2401.281738 2650.880127,2450.650635 2599.149414,2459.459717 
	C2584.225830,2462.000732 2568.550781,2460.848877 2553.267334,2460.228760 
	C2546.407471,2459.950684 2542.282959,2462.197266 2537.956787,2466.953369 
	C2435.137207,2579.991699 2316.442871,2672.683594 2181.041016,2743.604492 
	C2069.956055,2801.788574 1952.890259,2843.248535 1829.473755,2866.192139 
	C1800.029907,2871.665771 1770.413696,2876.212891 1739.937012,2881.344482 
	C1739.326294,2883.510742 1738.547607,2886.326172 1737.739014,2889.133057 
	C1716.439453,2963.065674 1668.924072,3009.920898 1593.874512,3028.219971 
	C1589.722534,3029.232178 1585.321289,3029.564453 1581.030396,3029.604004 
	C1564.365967,3029.758545 1547.692383,3029.371826 1531.035400,3029.756348 
	C1516.339233,3030.095215 1502.584229,3026.143555 1489.274170,3020.920898 
	C1425.290039,2995.813965 1385.456787,2949.567627 1369.581543,2882.692139 
	C1368.816406,2879.468506 1368.115112,2876.229492 1367.257812,2872.439453 
	C1364.894409,2871.722168 1362.466064,2870.697021 1359.935791,2870.258789 
	C1223.847656,2846.688477 1095.082031,2801.860840 973.591858,2736.336914 
	C861.039551,2675.633789 760.030518,2599.412109 669.921265,2508.654053 
	C616.939026,2455.290527 569.041931,2397.736084 526.054871,2336.081299 
	C522.665710,2331.219971 519.118347,2328.546875 513.038452,2329.072754 
	C508.075897,2329.502197 503.045227,2329.085449 498.046906,2329.169678 
	C455.475311,2329.887695 423.785645,2310.001709 401.204803,2275.566406 
	C373.543091,2233.382324 375.918182,2180.650146 405.556976,2139.474365 
	C407.100891,2137.329346 408.516174,2135.092041 410.084625,2132.759033 
	C304.466309,1895.389160 274.108856,1648.212769 312.986755,1392.319214 
	C248.391937,1347.125732 220.887085,1286.770630 244.904694,1210.917480 
	C267.124084,1140.743530 320.657013,1107.703369 394.529724,1103.398804 
	C458.186096,951.601562 550.925110,817.985657 665.843445,699.535278 
	C650.697388,647.028870 659.755493,600.491943 702.151917,565.063660 
	C743.434692,530.565979 789.932556,528.843689 838.689392,552.031738 
	C997.906006,439.088989 1174.303345,366.005737 1366.763428,332.631195 
	C1369.523926,322.206757 1371.410522,312.341125 1374.729858,302.983704 
	C1399.943848,231.902908 1449.492676,187.535629 1523.809937,175.013214 
	C1627.958984,157.464172 1717.826172,226.357147 1738.579346,319.895203 
	C1738.565674,347.465332 1739.689575,375.104248 1738.028564,402.574799 
	C1737.268555,415.144867 1731.026489,427.383514 1726.875732,441.074921 
	C1799.120117,516.508545 1872.134644,592.746216 1945.302856,669.144531 
	C1947.922607,668.276550 1950.114990,667.668640 1952.218140,666.835571 
	C1990.302856,651.752197 2027.288086,653.685303 2062.434326,675.112671 
	C2091.480469,692.821167 2109.723877,718.871887 2116.656738,752.132751 
	C2118.660400,761.744751 2117.671875,772.025391 2117.684814,782.000000 
	C2117.755859,836.605042 2077.434570,886.429138 2023.201782,894.834412 
	C1947.369751,906.587219 1892.926514,861.691040 1881.075684,796.637390 
	C1876.805054,773.194275 1879.822021,750.145752 1889.842651,728.269470 
	C1891.507080,724.635742 1893.268188,721.046387 1895.654419,716.028137 
	C1826.306152,643.530701 1756.610840,570.670471 1686.440674,497.313843 
	C1684.013916,499.144775 1681.879272,500.544830 1679.984497,502.216766 
	C1657.087158,522.421387 1630.959106,536.600586 1601.309937,543.997742 
	C1595.233276,545.513794 1588.849731,546.340698 1582.587158,546.467407 
	C1565.928101,546.804504 1549.247314,546.224487 1532.595337,546.705444 
	C1519.694946,547.078064 1507.415649,544.786072 1495.359985,540.615173 
	C1442.857422,522.451111 1404.790771,488.323853 1381.642822,437.714844 
	C1380.266846,434.706512 1378.894287,431.696533 1377.055542,427.670319 
	C1313.030518,438.805237 1250.439331,455.336792 1189.049805,476.639038 
	C1091.932739,510.338715 945.711609,586.433167 897.174561,628.462402 
	C897.174561,640.154968 897.174561,651.410522 897.174561,663.607849 
	C969.819153,689.973083 1042.029297,716.180603 1114.281006,742.403198 
	C1118.543457,739.039246 1122.334351,735.810852 1126.359375,732.906921 
	C1173.007812,699.252319 1239.436279,719.685303 1258.125977,773.489075 
	C1259.412842,777.193787 1260.216797,781.241150 1260.312378,785.151978 
	C1260.597656,796.811096 1260.759155,808.496094 1260.264771,820.141113 
	C1260.044067,825.338440 1258.849854,830.754761 1256.878662,835.573059 
	C1247.719360,857.961182 1231.616699,873.757202 1209.302002,882.863220 
	C1203.912842,885.062439 1197.743652,885.906494 1191.869507,886.235291 
	C1182.233521,886.774536 1172.538330,886.158630 1162.881470,886.456543 
	C1155.682373,886.678589 1149.017212,885.137573 1142.582764,882.129639 
	C1114.290527,868.903809 1097.010620,847.181213 1091.687744,816.217407 
	C1091.128784,812.965942 1090.489502,809.728210 1089.797363,805.998535 
	C1018.697571,780.208008 947.689636,754.450745 876.948975,728.790466 
	C866.872314,738.436035 857.323792,747.576111 846.753845,757.693909 
	C886.824463,883.749878 927.144470,1010.590332 967.289612,1136.880615 
	C978.353210,1138.535034 988.727173,1139.120361 998.567505,1141.722900 
	C1044.321045,1153.823730 1073.898315,1183.016602 1086.091675,1228.652710 
	C1089.024902,1239.631104 1087.535034,1251.764526 1088.314331,1263.350952 
	C1090.068359,1289.431274 1080.313110,1311.631226 1064.990845,1331.768677 
	C1047.564087,1354.671997 1024.350098,1368.960571 996.439453,1375.403320 
	C990.706482,1376.726685 984.516785,1376.286743 978.537476,1376.287720 
	C959.608704,1376.290527 940.413940,1378.227417 921.944153,1367.917236 
	C871.889648,1427.025757 822.228027,1485.670288 772.795105,1544.044800 
	C777.108948,1553.875488 781.336792,1562.866699 785.014771,1572.077515 
	C788.497925,1580.800293 790.243164,1589.923096 789.767151,1599.427979 
	C789.500732,1604.747681 789.645386,1610.092896 789.733032,1615.424561 
	C790.440979,1658.482910 769.788635,1689.663696 735.007812,1712.555664 
	C718.901611,1723.156494 701.181885,1729.743774 681.422180,1729.223755 
	C679.812134,1729.181396 678.189514,1729.619873 675.692810,1729.952148 
	C649.944336,1828.490845 624.197754,1927.022461 598.268188,2026.354980 
M743.795532,1472.789307 
	C785.722839,1423.300293 827.650146,1373.811157 869.074829,1324.915283 
	C863.676880,1313.344238 858.924377,1303.156738 854.105408,1292.826904 
	C749.559753,1292.826904 645.118835,1292.826904 540.870056,1292.826904 
	C520.962585,1360.886230 476.410522,1400.364502 407.310669,1411.757446 
	C406.882050,1413.119751 406.465179,1414.041138 406.307159,1415.004883 
	C398.698669,1461.411133 394.171631,1508.157959 392.466492,1555.112793 
	C390.445740,1610.760132 392.023590,1666.334473 397.509125,1721.815796 
	C405.102570,1798.616699 420.061371,1873.903076 442.127258,1947.813232 
	C455.862854,1993.820679 472.861115,2038.618164 491.970825,2082.648438 
	C494.488586,2088.449707 497.171112,2092.609863 504.266174,2091.293945 
	C506.473663,2090.884277 508.715271,2090.658691 511.216309,2090.310791 
	C543.983398,1964.671631 576.645325,1839.435669 609.299500,1714.229492 
	C605.576721,1711.468750 602.668152,1709.295898 599.743469,1707.145020 
	C550.964600,1671.273560 536.874939,1602.787720 567.551208,1550.652832 
	C596.838562,1500.878662 655.046265,1479.089111 710.101746,1497.275024 
	C713.483704,1498.392090 716.906860,1499.384155 720.338745,1500.443115 
	C728.248413,1491.116821 735.562317,1482.492920 743.795532,1472.789307 
M725.000000,1224.166992 
	C768.224731,1224.166992 811.449463,1224.166992 854.749146,1224.166992 
	C863.697449,1196.713501 879.364502,1175.293579 902.676453,1158.569946 
	C862.101990,1030.971680 821.592102,903.576599 780.837585,775.412415 
	C764.177734,775.604919 747.961304,775.008423 733.401978,768.237366 
	C652.657410,838.377014 517.805847,1040.224243 486.427673,1137.875732 
	C513.770081,1160.169189 531.881531,1189.005005 540.666504,1224.167114 
	C601.823425,1224.167114 662.411682,1224.167114 725.000000,1224.166992 
M2221.564697,2406.419922 
	C2217.117432,2412.233398 2213.191406,2418.551758 2208.132568,2423.772705 
	C2185.737793,2446.885742 2159.595947,2461.985840 2126.098877,2460.619873 
	C2119.778564,2460.362061 2113.380371,2461.123535 2107.121582,2460.450928 
	C2098.259766,2459.499023 2089.250244,2458.474365 2080.755859,2455.955811 
	C2072.261963,2453.437744 2064.324219,2449.042725 2055.417236,2445.153564 
	C1942.446533,2545.226807 1829.338989,2645.421387 1716.726562,2745.177246 
	C1723.216919,2759.405762 1729.105347,2772.314697 1735.211548,2785.701172 
	C2025.673584,2745.277344 2269.499512,2617.271973 2468.021240,2402.407715 
	C2464.077148,2393.223877 2460.577148,2385.074463 2457.129883,2377.047852 
	C2382.924561,2377.047852 2309.366699,2377.047852 2235.334229,2377.047852 
	C2233.408447,2381.859375 2231.771484,2386.534912 2229.686035,2391.000977 
	C2227.436279,2395.818848 2224.766602,2400.441162 2221.564697,2406.419922 
M1068.732178,2526.456543 
	C1010.197876,2501.604980 986.445068,2456.271240 991.036499,2393.518555 
	C863.989990,2351.155518 736.811340,2308.748535 609.253174,2266.215088 
	C606.477051,2270.815674 604.124451,2274.714355 601.626221,2278.854492 
	C714.212463,2440.268555 856.599731,2567.124268 1030.109619,2658.778320 
	C1139.521484,2716.573486 1255.213989,2756.006592 1376.756104,2776.623047 
	C1383.666626,2763.061035 1389.963989,2750.701904 1396.524658,2737.826416 
	C1320.632324,2664.715332 1244.915527,2591.773193 1169.272949,2518.902588 
	C1136.643677,2536.100098 1103.708862,2535.493408 1068.732178,2526.456543 
z"/>
<path fill="#FEFEFE" opacity="1.000000" stroke="none"
						d="
M2042.513428,1823.379883 
	C2100.510742,1908.006592 2158.100586,1992.038208 2216.458008,2077.189697 
	C2212.962646,2079.159668 2210.440918,2081.067871 2207.598877,2082.021729 
	C2205.497559,2082.727051 2202.979004,2082.203369 2200.646240,2082.203125 
	C2088.326172,2082.202148 1976.006226,2082.198730 1863.686157,2082.194336 
	C1850.351318,2082.193848 1849.085449,2082.985840 1846.890503,2096.435059 
	C1842.436401,2123.727295 1838.322510,2151.074463 1834.039185,2178.394531 
	C1829.034302,2210.317139 1824.022705,2242.238281 1818.963623,2274.152100 
	C1816.981934,2286.653076 1814.434692,2299.082520 1812.975586,2311.641113 
	C1812.162720,2318.638916 1808.730957,2321.239014 1802.347046,2322.366455 
	C1782.016968,2325.956787 1761.844238,2330.542236 1741.436646,2333.570312 
	C1671.136108,2344.000732 1600.614014,2344.598145 1530.130981,2335.819336 
	C1430.496094,2323.409668 1336.438232,2293.295654 1248.609741,2244.478027 
	C1109.966431,2167.415527 1003.698303,2058.509521 929.702637,1918.245972 
	C919.767334,1899.413086 911.528564,1879.690063 902.262085,1860.496216 
	C899.233521,1854.223145 900.279663,1849.616455 904.945435,1844.378662 
	C951.026184,1792.645874 996.889160,1740.718994 1042.781616,1688.818604 
	C1102.358643,1621.442383 1161.853638,1553.993652 1221.494263,1486.673706 
	C1243.584351,1461.739380 1265.375977,1436.497803 1288.385864,1412.431030 
	C1326.193481,1372.886841 1370.987549,1343.214600 1421.952759,1323.302856 
	C1473.291748,1303.244995 1526.701172,1296.063232 1581.685669,1298.795288 
	C1617.878296,1300.593506 1653.167114,1307.344971 1687.575562,1317.990967 
	C1742.027344,1334.838379 1792.775513,1359.844116 1838.247314,1394.259399 
	C1853.993652,1406.176758 1867.218994,1421.715210 1880.429810,1436.632446 
	C1908.418213,1468.236328 1931.406006,1503.258301 1948.489014,1541.981689 
	C1971.924072,1595.103516 1982.243896,1650.690796 1978.000488,1708.606079 
	C1977.013184,1722.083130 1979.705444,1732.790039 1987.670532,1743.759766 
	C2006.457886,1769.635132 2024.037720,1796.387329 2042.513428,1823.379883 
z"/>
<path fill="#FCFCFD" opacity="1.000000" stroke="none"
						d="
M1626.310303,1252.875488 
	C1611.229858,1251.119995 1597.024780,1249.214478 1582.757202,1248.132935 
	C1575.248413,1247.563721 1569.732056,1244.988892 1564.856812,1239.063232 
	C1535.047363,1202.830078 1510.727051,1163.413818 1492.756226,1119.960327 
	C1471.052002,1067.479126 1459.662354,1013.060425 1461.680664,956.296448 
	C1463.478882,905.721558 1475.592163,857.649292 1499.268433,812.510986 
	C1507.630005,796.569763 1529.227051,787.609985 1544.694092,791.033203 
	C1563.800781,795.262024 1581.286499,803.391846 1598.594727,811.762024 
	C1668.706421,845.667969 1727.825439,893.348145 1775.151245,955.325256 
	C1806.119751,995.881226 1830.002197,1040.255493 1846.022827,1088.808105 
	C1860.998413,1134.193359 1868.440063,1180.633911 1866.200562,1228.475464 
	C1864.742432,1259.627075 1858.496582,1289.920898 1849.207397,1319.609375 
	C1845.939941,1330.052246 1842.451172,1331.357788 1833.124023,1326.103882 
	C1799.975464,1307.431641 1765.331055,1292.017456 1729.532104,1279.289185 
	C1706.961792,1271.264526 1684.042480,1264.229858 1660.421997,1259.773438 
	C1649.308472,1257.676514 1638.245605,1255.311401 1626.310303,1252.875488 
z"/>
<path fill="#F9FAFB" opacity="1.000000" stroke="none"
						d="
M1476.946289,1194.829712 
	C1487.502319,1211.377075 1497.825439,1227.239502 1507.706177,1243.373169 
	C1512.934082,1251.909180 1511.401733,1254.420288 1501.551270,1254.949463 
	C1469.443970,1256.674316 1438.158081,1263.095337 1407.785156,1273.199951 
	C1373.483032,1284.611450 1341.883911,1301.577759 1313.138428,1323.653809 
	C1312.083740,1324.463867 1311.159546,1325.455933 1310.062256,1326.196899 
	C1304.195068,1330.158325 1300.245117,1329.572754 1297.250244,1323.052124 
	C1292.257080,1312.180054 1287.454590,1301.152832 1283.585571,1289.843994 
	C1267.792114,1243.682983 1264.866333,1196.629028 1276.707153,1149.230469 
	C1280.385132,1134.508057 1286.877563,1120.424683 1292.762085,1106.333008 
	C1300.898560,1086.848267 1318.105713,1083.970337 1334.186890,1090.101807 
	C1390.099854,1111.420166 1437.095703,1145.184692 1474.555786,1192.004395 
	C1475.178955,1192.783325 1475.869995,1193.507690 1476.946289,1194.829712 
z"/>
<path fill="#AFCFF5" opacity="1.000000" stroke="none"
						d="
M2440.534180,723.536255 
	C2444.109131,729.199402 2447.469727,734.175964 2450.325195,739.427185 
	C2454.690430,747.454285 2456.960693,755.987061 2456.439941,765.315491 
	C2455.995117,773.287476 2455.938721,781.330261 2456.449463,789.294373 
	C2457.119141,799.741394 2453.954102,809.045349 2449.091553,817.901367 
	C2439.128418,836.047180 2425.125977,850.812317 2405.371582,856.971619 
	C2382.221191,864.189880 2357.986816,865.355225 2335.176758,854.949097 
	C2303.813232,840.640930 2282.599365,806.714294 2286.744385,768.260315 
	C2290.857422,730.103394 2317.882080,699.854370 2355.033936,692.908569 
	C2388.682129,686.617737 2417.645264,696.246399 2440.534180,723.536255 
z"/>
<path fill="#AFCFF5" opacity="1.000000" stroke="none"
						d="
M2855.800293,1165.804077 
	C2847.986816,1171.471802 2840.954834,1177.106812 2833.289795,1181.681152 
	C2825.185303,1186.517700 2816.178955,1188.804688 2806.503906,1188.112549 
	C2800.870117,1187.709595 2795.156494,1187.675415 2789.526123,1188.102173 
	C2763.395508,1190.082764 2743.530762,1177.931885 2728.155518,1158.748657 
	C2706.015625,1131.125244 2702.036865,1099.784546 2717.093994,1067.779907 
	C2732.134521,1035.809814 2758.593506,1019.506348 2794.143066,1018.059509 
	C2824.150879,1016.838257 2859.848145,1035.457520 2874.609131,1070.476074 
	C2880.373535,1084.151001 2880.197266,1125.454346 2874.231689,1139.085449 
	C2869.909668,1148.961304 2864.054443,1157.778809 2855.800293,1165.804077 
z"/>
<path fill="#AFCFF5" opacity="1.000000" stroke="none"
						d="
M2172.492920,429.533936 
	C2143.204346,402.230682 2144.371094,356.036621 2172.527832,330.074158 
	C2193.448242,310.784363 2225.030029,306.617737 2250.627441,320.261993 
	C2274.935547,333.219147 2289.460693,361.834595 2285.548340,389.059296 
	C2281.420166,417.786163 2259.480225,440.898438 2231.441406,446.183960 
	C2209.295654,450.358643 2189.926514,444.678223 2172.492920,429.533936 
z"/>
<path fill="#AFCFF5" opacity="1.000000" stroke="none"
						d="
M2574.125488,634.934631 
	C2572.131836,616.316101 2574.523926,599.580566 2584.984863,584.529907 
	C2604.557861,556.368835 2637.999512,549.495667 2665.480469,559.965210 
	C2694.777100,571.126343 2712.005615,601.247314 2707.741943,632.753601 
	C2703.703369,662.595825 2678.283936,687.090454 2648.277100,690.054749 
	C2615.932129,693.249939 2586.961426,674.846985 2576.615967,644.475159 
	C2575.653320,641.648254 2575.023438,638.707947 2574.125488,634.934631 
z"/>
<path fill="#374372" opacity="1.000000" stroke="none"
						d="
M743.335938,1473.329102 
	C735.562317,1482.492920 728.248413,1491.116821 720.338745,1500.443115 
	C716.906860,1499.384155 713.483704,1498.392090 710.101746,1497.275024 
	C655.046265,1479.089111 596.838562,1500.878662 567.551208,1550.652832 
	C536.874939,1602.787720 550.964600,1671.273560 599.743469,1707.145020 
	C602.668152,1709.295898 605.576721,1711.468750 609.299500,1714.229492 
	C576.645325,1839.435669 543.983398,1964.671631 511.216309,2090.310791 
	C508.715271,2090.658691 506.473663,2090.884277 504.266174,2091.293945 
	C497.171112,2092.609863 494.488586,2088.449707 491.970825,2082.648438 
	C472.861115,2038.618164 455.862854,1993.820679 442.127258,1947.813232 
	C420.061371,1873.903076 405.102570,1798.616699 397.509125,1721.815796 
	C392.023590,1666.334473 390.445740,1610.760132 392.466492,1555.112793 
	C394.171631,1508.157959 398.698669,1461.411133 406.307159,1415.004883 
	C406.465179,1414.041138 406.882050,1413.119751 407.310669,1411.757446 
	C476.410522,1400.364502 520.962585,1360.886230 540.870056,1292.826904 
	C645.118835,1292.826904 749.559753,1292.826904 854.105408,1292.826904 
	C858.924377,1303.156738 863.676880,1313.344238 869.074829,1324.915283 
	C827.650146,1373.811157 785.722839,1423.300293 743.335938,1473.329102 
z"/>
<path fill="#364271" opacity="1.000000" stroke="none"
						d="
M724.000000,1224.166992 
	C662.411682,1224.167114 601.823425,1224.167114 540.666504,1224.167114 
	C531.881531,1189.005005 513.770081,1160.169189 486.427673,1137.875732 
	C517.805847,1040.224243 652.657410,838.377014 733.401978,768.237366 
	C747.961304,775.008423 764.177734,775.604919 780.837585,775.412415 
	C821.592102,903.576599 862.101990,1030.971680 902.676453,1158.569946 
	C879.364502,1175.293579 863.697449,1196.713501 854.749146,1224.166992 
	C811.449463,1224.166992 768.224731,1224.166992 724.000000,1224.166992 
z"/>
<path fill="#374372" opacity="1.000000" stroke="none"
						d="
M2221.922363,2405.784180 
	C2224.766602,2400.441162 2227.436279,2395.818848 2229.686035,2391.000977 
	C2231.771484,2386.534912 2233.408447,2381.859375 2235.334229,2377.047852 
	C2309.366699,2377.047852 2382.924561,2377.047852 2457.129883,2377.047852 
	C2460.577148,2385.074463 2464.077148,2393.223877 2468.021240,2402.407715 
	C2269.499512,2617.271973 2025.673584,2745.277344 1735.211548,2785.701172 
	C1729.105347,2772.314697 1723.216919,2759.405762 1716.726562,2745.177246 
	C1829.338989,2645.421387 1942.446533,2545.226807 2055.417236,2445.153564 
	C2064.324219,2449.042725 2072.261963,2453.437744 2080.755859,2455.955811 
	C2089.250244,2458.474365 2098.259766,2459.499023 2107.121582,2460.450928 
	C2113.380371,2461.123535 2119.778564,2460.362061 2126.098877,2460.619873 
	C2159.595947,2461.985840 2185.737793,2446.885742 2208.132568,2423.772705 
	C2213.191406,2418.551758 2217.117432,2412.233398 2221.922363,2405.784180 
z"/>
<path fill="#374372" opacity="1.000000" stroke="none"
						d="
M1069.461670,2526.756348 
	C1103.708862,2535.493408 1136.643677,2536.100098 1169.272949,2518.902588 
	C1244.915527,2591.773193 1320.632324,2664.715332 1396.524658,2737.826416 
	C1389.963989,2750.701904 1383.666626,2763.061035 1376.756104,2776.623047 
	C1255.213989,2756.006592 1139.521484,2716.573486 1030.109619,2658.778320 
	C856.599731,2567.124268 714.212463,2440.268555 601.626221,2278.854492 
	C604.124451,2274.714355 606.477051,2270.815674 609.253174,2266.215088 
	C736.811340,2308.748535 863.989990,2351.155518 991.036499,2393.518555 
	C986.445068,2456.271240 1010.197876,2501.604980 1069.461670,2526.756348 
z"/>

</svg>
