<?xml version="1.0" encoding="UTF-8" standalone="no"?><!DOCTYPE svg PUBLIC "-//W3C//DTD SVG 1.1//EN" "http://www.w3.org/Graphics/SVG/1.1/DTD/svg11.dtd"><svg width="100%" height="100%" viewBox="0 0 1284 1117" version="1.1" xmlns="http://www.w3.org/2000/svg" xmlns:xlink="http://www.w3.org/1999/xlink" xml:space="preserve" xmlns:serif="http://www.serif.com/" style="fill-rule:evenodd;clip-rule:evenodd;stroke-linejoin:round;stroke-miterlimit:2;"><path d="M503.191,60.617c0.623,0.064 1.246,0.128 3.032,-0.113c33.524,-9.99 65.819,-19.907 98.276,-29.257c14.931,-4.301 30.181,-7.493 45.286,-11.188c0.924,-0.02 1.847,-0.041 4.158,-0.29c6.205,-1.365 11.024,-2.501 15.843,-3.636c0.918,0.004 1.836,0.008 4.082,-0.134c3.522,-0.727 5.716,-1.308 7.909,-1.889c1.539,-0.053 3.077,-0.106 5.949,-0.335c2.913,-0.652 4.494,-1.128 6.074,-1.604c0.913,0.015 1.827,0.03 4.214,-0.086c6.338,-0.801 11.2,-1.479 16.066,-2.14c13.921,-1.891 27.843,-3.774 41.764,-5.66c2.144,-0.018 4.287,-0.035 8.036,-0.138c6.387,-0.689 11.169,-1.292 15.95,-1.895c0.9,0.08 1.799,0.16 4.274,0.177c13.615,-0.797 25.654,-1.531 37.693,-2.266c1.528,0.103 3.057,0.206 6.056,0.295c2.954,-0.161 4.438,-0.309 5.921,-0.456c5.428,0.112 10.855,0.223 17.984,0.349c4.491,-0.107 7.28,-0.229 10.07,-0.35c0.905,0.131 1.809,0.263 4.216,0.436c18.125,0.984 34.786,1.485 51.36,2.971c26.175,2.346 52.29,5.352 78.431,8.079c1.488,0.322 2.976,0.644 5.866,1.259c6.897,1.429 12.391,2.565 18.61,3.852c-5.546,6.615 -10.105,12.053 -15.269,17.772c-4.856,6.1 -9.108,11.918 -13.937,18.085c-48.877,80.465 -36.316,153.672 25.009,221.898c-23.007,45.967 -49.864,89.681 -81.594,129.995c-60.33,-25.454 -119.079,-8.564 -154.2,26.909c-44.014,44.455 -53.05,96.322 -31.479,154.442c-14.401,14.393 -96.194,62.156 -116.486,67.919c-0.678,-0.629 -1.485,-1.229 -2.111,-1.981c-19.434,-23.341 -43.935,-36.758 -74.41,-40.16c-51.128,-5.707 -102.378,28.563 -116.069,78.082c-5.186,18.76 -4.813,37.488 -2.75,56.469c-3.468,0.408 -6.115,0.617 -8.704,1.125c-19.137,3.758 -38.204,7.91 -57.41,11.266c-14.633,2.557 -29.401,4.484 -44.177,6.052c-21.347,2.266 -42.755,3.952 -64.137,5.886c6.082,-29.1 15.885,-57.034 26.694,-84.637c28.332,-72.347 69.36,-137.148 117.737,-197.55c59.332,-74.081 128.434,-137.856 204.758,-194.016c6.079,-4.473 11.749,-9.504 18.693,-14.846c5.217,-2.999 9.351,-5.427 13.485,-7.855c-0.365,-0.638 -0.73,-1.277 -1.095,-1.915c-4.434,1.87 -8.867,3.74 -13.301,5.609c-7.03,2.333 -14.057,4.675 -21.09,6.996c-3.159,1.043 -6.376,1.924 -9.49,3.085c-94.916,35.411 -179.022,88.182 -253.061,157.239c-69.771,65.077 -124.692,141.141 -167.903,225.924c-45.081,88.451 -75.638,181.902 -96.214,278.83c-9.555,45.01 -16.941,90.348 -22.351,136.028c-0.504,4.259 -1.261,8.688 -2.982,12.557c-2.62,5.894 -9.098,6.558 -12.78,1.257c-2.396,-3.45 -3.79,-7.751 -4.98,-11.86c-10.397,-35.877 -18.224,-72.328 -24.408,-109.16c-10.402,-61.96 -15.535,-124.363 -14.046,-187.139c2.574,-108.526 20.785,-214.124 63.215,-314.645c57.844,-137.036 148.665,-246.983 272.672,-329.302c30.303,-20.116 62.063,-37.72 95.925,-53.977c2.042,-1.214 3.029,-1.881 4.015,-2.548c0,0 -0.156,-0.058 0.49,0.003c1.734,-0.611 2.821,-1.283 3.908,-1.954c1.499,-0.484 2.998,-0.969 5.57,-1.909c1.712,-0.99 2.351,-1.523 2.991,-2.057c0,0 0.437,0.23 1.315,0.03c3.355,-1.475 5.831,-2.751 8.308,-4.026c0,0 0.701,0.081 1.576,-0.192c1.505,-0.789 2.136,-1.305 2.766,-1.82c0,0 0.435,0.23 1.291,0.007c1.53,-0.789 2.205,-1.354 2.879,-1.92c0,0 0.242,0.293 0.976,0.176c1.036,-0.334 1.338,-0.55 1.64,-0.766c1.096,-0.287 2.192,-0.574 4.421,-1.313c8.985,-3.688 16.837,-6.923 24.688,-10.159c0,0 0.522,0.219 1.392,-0.019c1.546,-0.789 2.222,-1.34 2.898,-1.891Z" style="fill:#5c9d3b;fill-rule:nonzero;"/><path d="M1083.949,8.574c17.641,-5.116 35.433,-8.552 54.01,-8.348c67.519,0.744 137.938,50.835 145.038,135.759c7.637,91.339 -68.541,158.717 -142.824,158.685c-4.312,-0.002 -8.623,-0 -13.317,-0c-38.28,72.627 -87.513,137.002 -142.602,197.145c14.037,50.459 4.199,94.624 -37.375,127.725c-38.837,30.921 -81.83,31.663 -126.703,9.808c-58.255,38.026 -120.123,70.15 -187.689,93.034c-3.8,-12.381 -6.281,-24.339 -8.11,-36.596c56.216,-25.015 108.106,-55.952 156.972,-91.898c-17.307,-36.517 -20.476,-49.183 -17.972,-73.831c2.684,-26.421 13.254,-49.37 31.522,-68.593c16.322,-17.176 36.387,-28.021 59.608,-32.399c30.822,-5.811 59.422,1.063 85.773,17.123c29.597,-30.342 85.662,-120.896 106.613,-169.326c-4.583,-4.087 -9.381,-8.169 -13.963,-12.481c-49.995,-47.052 -58.039,-120.933 -29.965,-173.512c2.501,-4.684 4.924,-9.41 7.938,-14.491c7.502,-8.816 14.449,-17.256 22.024,-25.935c15.533,-13.797 32.66,-23.815 51.021,-31.868Z" style="fill:#523624;fill-rule:nonzero;"/><path d="M623.724,686.084c2.482,11.958 4.964,23.917 8.029,36.519c-0.512,3.978 -2.036,7.237 -2.637,10.658c-6.382,36.291 -33.1,63.725 -69.051,70.089c-14.971,2.651 -29.856,1.737 -44.353,-3.472c-9.047,-3.25 -9.287,-3.152 -15.317,3.976c-34.435,40.712 -68.829,81.459 -103.201,122.224c-1.68,1.992 -3.027,4.264 -4.766,6.743c2.281,3.606 4.539,6.866 6.487,10.302c22.979,40.527 24.522,81.494 -0.8,121.141c-25.803,40.401 -64.456,57.25 -111.462,51.407c-33.961,-4.221 -61.182,-21.725 -79.755,-51.273c-1.95,-3.102 -3.779,-6.281 -6.255,-10.446c-1.281,-1.991 -1.971,-2.961 -2.66,-3.93c0,0 -0.079,0.178 -0.049,-0.632c-6.081,-15.404 -9.466,-30.59 -8.857,-46.43c0.343,-8.924 1.621,-17.811 2.477,-26.715c1.309,-3.556 2.619,-7.112 4.357,-11.932c2.951,-6.857 5.473,-12.449 7.995,-18.042c1.956,-2.725 3.913,-5.45 6.591,-9.164c8.305,-8.917 15.888,-16.845 23.471,-24.773c0,0 -0.124,-0.084 0.588,-0.171c7.586,-3.981 14.287,-8.227 21.369,-11.696c15.701,-7.689 32.678,-9.838 49.905,-10.585c0.905,0.133 1.811,0.266 4.164,0.486c10.894,1.928 20.341,3.768 29.788,5.608c0.615,0.277 1.23,0.555 2.853,1.258c4.258,1.854 7.693,2.97 10.715,4.778c5.216,3.121 8.407,1.341 10.714,-3.609c0,0 -0.185,-0.115 0.486,-0.294c7.651,-8.701 14.631,-17.222 21.612,-25.744c0.698,-0.102 1.201,-0.47 2.202,-1.874c7.051,-8.559 13.408,-16.35 19.764,-24.14c1.733,-1.769 3.467,-3.538 5.983,-6.184c5.706,-7.02 10.587,-13.198 15.569,-19.293c2.88,-3.523 5.925,-6.912 8.896,-10.361c0.589,-0.073 1.02,-0.373 1.936,-1.526c0.988,-1.276 1.335,-1.925 1.682,-2.574c4.959,-5.667 9.917,-11.334 15.693,-17.932c4.325,-4.926 7.892,-8.871 11.327,-12.926c5.68,-6.706 5.782,-6.813 1.435,-14.583c-15.879,-28.382 -14.24,-65.906 9.623,-95.043c35.906,-43.843 109.286,-39.522 138.129,11.856c1.606,2.86 3.543,5.534 5.325,8.294Z" style="fill:#5c9d3d;fill-rule:nonzero;"/><path d="M437.016,746.027c3.558,7.522 6.269,15.106 9.101,23.03c-4.018,1.01 -7.44,1.87 -11.576,3.038c-1.618,0.301 -2.522,0.293 -4.871,0.445c-8.229,1.658 -15.012,3.157 -21.795,4.656c-0.378,-0.281 -0.757,-0.562 -2.259,-0.87c-17.43,1.705 -33.736,3.438 -50.042,5.17c-22.796,0.61 -45.591,1.274 -68.389,1.792c-5.614,0.127 -11.252,-0.02 -16.855,-0.4c-8.967,-0.608 -9.484,-1.445 -8.073,-11.913c21.712,-2.553 43.12,-4.239 64.467,-6.505c14.776,-1.568 29.544,-3.495 44.177,-6.052c19.206,-3.356 38.273,-7.508 57.41,-11.266c2.589,-0.508 5.236,-0.717 8.704,-1.125Z" style="fill:#533d29;fill-rule:nonzero;"/></svg>