<?xml version="1.0" encoding="UTF-8" standalone="no"?><!DOCTYPE svg PUBLIC "-//W3C//DTD SVG 1.1//EN" "http://www.w3.org/Graphics/SVG/1.1/DTD/svg11.dtd"><svg width="100%" height="100%" viewBox="0 0 497 396" version="1.1" xmlns="http://www.w3.org/2000/svg" xmlns:xlink="http://www.w3.org/1999/xlink" xml:space="preserve" xmlns:serif="http://www.serif.com/" style="fill-rule:evenodd;clip-rule:evenodd;stroke-linecap:round;stroke-linejoin:round;"><path d="M27.96,153.509l141.238,-106.667l141.238,106.667l0,192l-282.476,0l0,-192l0.001,-0Z" style="fill:none;fill-rule:nonzero;stroke:#808080;stroke-width:41.53px;"/><path d="M227.199,211.201l0,135.163l-127.959,0l0,-135.163l127.959,0Zm-26.731,17.622l-76.828,0l39.632,34.131l37.196,-34.131Zm6.909,72.114l0,-58.531l-32.905,30.193l32.905,28.337Zm-86.061,20.439l86.061,0l0,-1.067l-43.795,-37.716l-42.266,38.783Zm-3.313,-78.036l0,61.154l34.379,-31.547l-34.379,-29.607Z" style="fill:#808080;"/><rect x="343.584" y="123.526" width="96.449" height="29.016" style="fill:#808080;"/><path d="M326.626,366.839l0,-252.248c-0,-47.313 31.298,-84.083 64,-84.083c32.701,-0 64,36.768 64,84.083l0,252.248" style="fill:none;fill-rule:nonzero;stroke:#808080;stroke-width:44.13px;stroke-linecap:butt;"/><path d="M369.293,181.226l42.667,0m-42.667,55.868l42.667,0m-42.667,55.868l42.667,0" style="fill:none;fill-rule:nonzero;stroke:#808080;stroke-width:40.05px;stroke-linecap:butt;stroke-linejoin:miter;"/><path d="M163.22,108.127c30.489,0 55.242,21.767 55.242,48.578c0,26.811 -24.753,48.578 -55.242,48.578c-30.489,0 -55.242,-21.767 -55.242,-48.578c0,-26.811 24.753,-48.578 55.242,-48.578Zm0,14.683c-21.273,0 -38.545,15.188 -38.545,33.895c0,18.707 17.271,33.895 38.545,33.895c21.273,0 38.545,-15.188 38.545,-33.895c0,-18.707 -17.271,-33.895 -38.545,-33.895Z" style="fill:none;stroke:#808080;stroke-width:5.37px;stroke-miterlimit:1.5;"/><path d="M163.22,108.127c30.489,0 55.242,21.767 55.242,48.578c0,26.811 -24.753,48.578 -55.242,48.578c-30.489,0 -55.242,-21.767 -55.242,-48.578c0,-26.811 24.753,-48.578 55.242,-48.578Zm0,14.683c-21.273,0 -38.545,15.188 -38.545,33.895c0,18.707 17.271,33.895 38.545,33.895c21.273,0 38.545,-15.188 38.545,-33.895c0,-18.707 -17.271,-33.895 -38.545,-33.895Z" style="fill:#808080;"/><rect x="343.584" y="325.889" width="89.342" height="40.95" style="fill:#808080;"/></svg>